<svg width="3405" height="1432" xmlns="http://www.w3.org/2000/svg" xmlns:xlink="http://www.w3.org/1999/xlink" overflow="hidden"><defs><filter id="fx0" x="-10%" y="-10%" width="120%" height="120%" filterUnits="userSpaceOnUse" primitiveUnits="userSpaceOnUse"><feComponentTransfer color-interpolation-filters="sRGB"><feFuncR type="discrete" tableValues="0 0"/><feFuncG type="discrete" tableValues="0 0"/><feFuncB type="discrete" tableValues="0 0"/><feFuncA type="linear" slope="0.4" intercept="0"/></feComponentTransfer><feGaussianBlur stdDeviation="6.11111 6.11111"/></filter><filter id="fx1" x="-10%" y="-10%" width="120%" height="120%" filterUnits="userSpaceOnUse" primitiveUnits="userSpaceOnUse"><feComponentTransfer color-interpolation-filters="sRGB"><feFuncR type="discrete" tableValues="0 0"/><feFuncG type="discrete" tableValues="0 0"/><feFuncB type="discrete" tableValues="0 0"/><feFuncA type="linear" slope="0.4" intercept="0"/></feComponentTransfer><feGaussianBlur stdDeviation="6.11111 6.11111"/></filter><filter id="fx2" x="-10%" y="-10%" width="120%" height="120%" filterUnits="userSpaceOnUse" primitiveUnits="userSpaceOnUse"><feComponentTransfer color-interpolation-filters="sRGB"><feFuncR type="discrete" tableValues="0 0"/><feFuncG type="discrete" tableValues="0 0"/><feFuncB type="discrete" tableValues="0 0"/><feFuncA type="linear" slope="0.4" intercept="0"/></feComponentTransfer><feGaussianBlur stdDeviation="6.11111 6.11111"/></filter><filter id="fx3" x="-10%" y="-10%" width="120%" height="120%" filterUnits="userSpaceOnUse" primitiveUnits="userSpaceOnUse"><feComponentTransfer color-interpolation-filters="sRGB"><feFuncR type="discrete" tableValues="0 0"/><feFuncG type="discrete" tableValues="0 0"/><feFuncB type="discrete" tableValues="0 0"/><feFuncA type="linear" slope="0.4" intercept="0"/></feComponentTransfer><feGaussianBlur stdDeviation="6.11111 6.11111"/></filter><filter id="fx4" x="-10%" y="-10%" width="120%" height="120%" filterUnits="userSpaceOnUse" primitiveUnits="userSpaceOnUse"><feComponentTransfer color-interpolation-filters="sRGB"><feFuncR type="discrete" tableValues="0 0"/><feFuncG type="discrete" tableValues="0 0"/><feFuncB type="discrete" tableValues="0 0"/><feFuncA type="linear" slope="0.4" intercept="0"/></feComponentTransfer><feGaussianBlur stdDeviation="6.11111 6.11111"/></filter><filter id="fx5" x="-10%" y="-10%" width="120%" height="120%" filterUnits="userSpaceOnUse" primitiveUnits="userSpaceOnUse"><feComponentTransfer color-interpolation-filters="sRGB"><feFuncR type="discrete" tableValues="0 0"/><feFuncG type="discrete" tableValues="0 0"/><feFuncB type="discrete" tableValues="0 0"/><feFuncA type="linear" slope="0.4" intercept="0"/></feComponentTransfer><feGaussianBlur stdDeviation="6.11111 6.11111"/></filter><filter id="fx6" x="-10%" y="-10%" width="120%" height="120%" filterUnits="userSpaceOnUse" primitiveUnits="userSpaceOnUse"><feComponentTransfer color-interpolation-filters="sRGB"><feFuncR type="discrete" tableValues="0 0"/><feFuncG type="discrete" tableValues="0 0"/><feFuncB type="discrete" tableValues="0 0"/><feFuncA type="linear" slope="0.4" intercept="0"/></feComponentTransfer><feGaussianBlur stdDeviation="6.11111 6.11111"/></filter><filter id="fx7" x="-10%" y="-10%" width="120%" height="120%" filterUnits="userSpaceOnUse" primitiveUnits="userSpaceOnUse"><feComponentTransfer color-interpolation-filters="sRGB"><feFuncR type="discrete" tableValues="0 0"/><feFuncG type="discrete" tableValues="0 0"/><feFuncB type="discrete" tableValues="0 0"/><feFuncA type="linear" slope="0.4" intercept="0"/></feComponentTransfer><feGaussianBlur stdDeviation="6.11111 6.11111"/></filter><filter id="fx8" x="-10%" y="-10%" width="120%" height="120%" filterUnits="userSpaceOnUse" primitiveUnits="userSpaceOnUse"><feComponentTransfer color-interpolation-filters="sRGB"><feFuncR type="discrete" tableValues="0 0"/><feFuncG type="discrete" tableValues="0 0"/><feFuncB type="discrete" tableValues="0 0"/><feFuncA type="linear" slope="0.4" intercept="0"/></feComponentTransfer><feGaussianBlur stdDeviation="6.11111 6.11111"/></filter><filter id="fx9" x="-10%" y="-10%" width="120%" height="120%" filterUnits="userSpaceOnUse" primitiveUnits="userSpaceOnUse"><feComponentTransfer color-interpolation-filters="sRGB"><feFuncR type="discrete" tableValues="0 0"/><feFuncG type="discrete" tableValues="0 0"/><feFuncB type="discrete" tableValues="0 0"/><feFuncA type="linear" slope="0.4" intercept="0"/></feComponentTransfer><feGaussianBlur stdDeviation="6.11111 6.11111"/></filter><filter id="fx10" x="-10%" y="-10%" width="120%" height="120%" filterUnits="userSpaceOnUse" primitiveUnits="userSpaceOnUse"><feComponentTransfer color-interpolation-filters="sRGB"><feFuncR type="discrete" tableValues="0 0"/><feFuncG type="discrete" tableValues="0 0"/><feFuncB type="discrete" tableValues="0 0"/><feFuncA type="linear" slope="0.4" intercept="0"/></feComponentTransfer><feGaussianBlur stdDeviation="6.11111 6.11111"/></filter><filter id="fx11" x="-10%" y="-10%" width="120%" height="120%" filterUnits="userSpaceOnUse" primitiveUnits="userSpaceOnUse"><feComponentTransfer color-interpolation-filters="sRGB"><feFuncR type="discrete" tableValues="0 0"/><feFuncG type="discrete" tableValues="0 0"/><feFuncB type="discrete" tableValues="0 0"/><feFuncA type="linear" slope="0.4" intercept="0"/></feComponentTransfer><feGaussianBlur stdDeviation="6.11111 6.11111"/></filter><filter id="fx12" x="-10%" y="-10%" width="120%" height="120%" filterUnits="userSpaceOnUse" primitiveUnits="userSpaceOnUse"><feComponentTransfer color-interpolation-filters="sRGB"><feFuncR type="discrete" tableValues="0 0"/><feFuncG type="discrete" tableValues="0 0"/><feFuncB type="discrete" tableValues="0 0"/><feFuncA type="linear" slope="0.4" intercept="0"/></feComponentTransfer><feGaussianBlur stdDeviation="6.11111 6.11111"/></filter><filter id="fx13" x="-10%" y="-10%" width="120%" height="120%" filterUnits="userSpaceOnUse" primitiveUnits="userSpaceOnUse"><feComponentTransfer color-interpolation-filters="sRGB"><feFuncR type="discrete" tableValues="0 0"/><feFuncG type="discrete" tableValues="0 0"/><feFuncB type="discrete" tableValues="0 0"/><feFuncA type="linear" slope="0.4" intercept="0"/></feComponentTransfer><feGaussianBlur stdDeviation="6.11111 6.11111"/></filter><filter id="fx14" x="-10%" y="-10%" width="120%" height="120%" filterUnits="userSpaceOnUse" primitiveUnits="userSpaceOnUse"><feComponentTransfer color-interpolation-filters="sRGB"><feFuncR type="discrete" tableValues="0 0"/><feFuncG type="discrete" tableValues="0 0"/><feFuncB type="discrete" tableValues="0 0"/><feFuncA type="linear" slope="0.4" intercept="0"/></feComponentTransfer><feGaussianBlur stdDeviation="6.11111 6.11111"/></filter><filter id="fx15" x="-10%" y="-10%" width="120%" height="120%" filterUnits="userSpaceOnUse" primitiveUnits="userSpaceOnUse"><feComponentTransfer color-interpolation-filters="sRGB"><feFuncR type="discrete" tableValues="0 0"/><feFuncG type="discrete" tableValues="0 0"/><feFuncB type="discrete" tableValues="0 0"/><feFuncA type="linear" slope="0.4" intercept="0"/></feComponentTransfer><feGaussianBlur stdDeviation="6.11111 6.11111"/></filter><filter id="fx16" x="-10%" y="-10%" width="120%" height="120%" filterUnits="userSpaceOnUse" primitiveUnits="userSpaceOnUse"><feComponentTransfer color-interpolation-filters="sRGB"><feFuncR type="discrete" tableValues="0 0"/><feFuncG type="discrete" tableValues="0 0"/><feFuncB type="discrete" tableValues="0 0"/><feFuncA type="linear" slope="0.4" intercept="0"/></feComponentTransfer><feGaussianBlur stdDeviation="6.11111 6.11111"/></filter><filter id="fx17" x="-10%" y="-10%" width="120%" height="120%" filterUnits="userSpaceOnUse" primitiveUnits="userSpaceOnUse"><feComponentTransfer color-interpolation-filters="sRGB"><feFuncR type="discrete" tableValues="0 0"/><feFuncG type="discrete" tableValues="0 0"/><feFuncB type="discrete" tableValues="0 0"/><feFuncA type="linear" slope="0.4" intercept="0"/></feComponentTransfer><feGaussianBlur stdDeviation="6.11111 6.11111"/></filter><filter id="fx18" x="-10%" y="-10%" width="120%" height="120%" filterUnits="userSpaceOnUse" primitiveUnits="userSpaceOnUse"><feComponentTransfer color-interpolation-filters="sRGB"><feFuncR type="discrete" tableValues="0 0"/><feFuncG type="discrete" tableValues="0 0"/><feFuncB type="discrete" tableValues="0 0"/><feFuncA type="linear" slope="0.4" intercept="0"/></feComponentTransfer><feGaussianBlur stdDeviation="6.11111 6.11111"/></filter><filter id="fx19" x="-10%" y="-10%" width="120%" height="120%" filterUnits="userSpaceOnUse" primitiveUnits="userSpaceOnUse"><feComponentTransfer color-interpolation-filters="sRGB"><feFuncR type="discrete" tableValues="0 0"/><feFuncG type="discrete" tableValues="0 0"/><feFuncB type="discrete" tableValues="0 0"/><feFuncA type="linear" slope="0.4" intercept="0"/></feComponentTransfer><feGaussianBlur stdDeviation="6.11111 6.11111"/></filter><filter id="fx20" x="-10%" y="-10%" width="120%" height="120%" filterUnits="userSpaceOnUse" primitiveUnits="userSpaceOnUse"><feComponentTransfer color-interpolation-filters="sRGB"><feFuncR type="discrete" tableValues="0 0"/><feFuncG type="discrete" tableValues="0 0"/><feFuncB type="discrete" tableValues="0 0"/><feFuncA type="linear" slope="0.4" intercept="0"/></feComponentTransfer><feGaussianBlur stdDeviation="6.11111 6.11111"/></filter><filter id="fx21" x="-10%" y="-10%" width="120%" height="120%" filterUnits="userSpaceOnUse" primitiveUnits="userSpaceOnUse"><feComponentTransfer color-interpolation-filters="sRGB"><feFuncR type="discrete" tableValues="0 0"/><feFuncG type="discrete" tableValues="0 0"/><feFuncB type="discrete" tableValues="0 0"/><feFuncA type="linear" slope="0.4" intercept="0"/></feComponentTransfer><feGaussianBlur stdDeviation="6.11111 6.11111"/></filter><filter id="fx22" x="-10%" y="-10%" width="120%" height="120%" filterUnits="userSpaceOnUse" primitiveUnits="userSpaceOnUse"><feComponentTransfer color-interpolation-filters="sRGB"><feFuncR type="discrete" tableValues="0 0"/><feFuncG type="discrete" tableValues="0 0"/><feFuncB type="discrete" tableValues="0 0"/><feFuncA type="linear" slope="0.4" intercept="0"/></feComponentTransfer><feGaussianBlur stdDeviation="6.11111 6.11111"/></filter><filter id="fx23" x="-10%" y="-10%" width="120%" height="120%" filterUnits="userSpaceOnUse" primitiveUnits="userSpaceOnUse"><feComponentTransfer color-interpolation-filters="sRGB"><feFuncR type="discrete" tableValues="0 0"/><feFuncG type="discrete" tableValues="0 0"/><feFuncB type="discrete" tableValues="0 0"/><feFuncA type="linear" slope="0.4" intercept="0"/></feComponentTransfer><feGaussianBlur stdDeviation="6.11111 6.11111"/></filter><filter id="fx24" x="-10%" y="-10%" width="120%" height="120%" filterUnits="userSpaceOnUse" primitiveUnits="userSpaceOnUse"><feComponentTransfer color-interpolation-filters="sRGB"><feFuncR type="discrete" tableValues="0 0"/><feFuncG type="discrete" tableValues="0 0"/><feFuncB type="discrete" tableValues="0 0"/><feFuncA type="linear" slope="0.4" intercept="0"/></feComponentTransfer><feGaussianBlur stdDeviation="6.11111 6.11111"/></filter><filter id="fx25" x="-10%" y="-10%" width="120%" height="120%" filterUnits="userSpaceOnUse" primitiveUnits="userSpaceOnUse"><feComponentTransfer color-interpolation-filters="sRGB"><feFuncR type="discrete" tableValues="0 0"/><feFuncG type="discrete" tableValues="0 0"/><feFuncB type="discrete" tableValues="0 0"/><feFuncA type="linear" slope="0.4" intercept="0"/></feComponentTransfer><feGaussianBlur stdDeviation="6.11111 6.11111"/></filter><filter id="fx26" x="-10%" y="-10%" width="120%" height="120%" filterUnits="userSpaceOnUse" primitiveUnits="userSpaceOnUse"><feComponentTransfer color-interpolation-filters="sRGB"><feFuncR type="discrete" tableValues="0 0"/><feFuncG type="discrete" tableValues="0 0"/><feFuncB type="discrete" tableValues="0 0"/><feFuncA type="linear" slope="0.4" intercept="0"/></feComponentTransfer><feGaussianBlur stdDeviation="6.11111 6.11111"/></filter><filter id="fx27" x="-10%" y="-10%" width="120%" height="120%" filterUnits="userSpaceOnUse" primitiveUnits="userSpaceOnUse"><feComponentTransfer color-interpolation-filters="sRGB"><feFuncR type="discrete" tableValues="0 0"/><feFuncG type="discrete" tableValues="0 0"/><feFuncB type="discrete" tableValues="0 0"/><feFuncA type="linear" slope="0.4" intercept="0"/></feComponentTransfer><feGaussianBlur stdDeviation="6.11111 6.11111"/></filter><filter id="fx28" x="-10%" y="-10%" width="120%" height="120%" filterUnits="userSpaceOnUse" primitiveUnits="userSpaceOnUse"><feComponentTransfer color-interpolation-filters="sRGB"><feFuncR type="discrete" tableValues="0 0"/><feFuncG type="discrete" tableValues="0 0"/><feFuncB type="discrete" tableValues="0 0"/><feFuncA type="linear" slope="0.4" intercept="0"/></feComponentTransfer><feGaussianBlur stdDeviation="6.11111 6.11111"/></filter><filter id="fx29" x="-10%" y="-10%" width="120%" height="120%" filterUnits="userSpaceOnUse" primitiveUnits="userSpaceOnUse"><feComponentTransfer color-interpolation-filters="sRGB"><feFuncR type="discrete" tableValues="0 0"/><feFuncG type="discrete" tableValues="0 0"/><feFuncB type="discrete" tableValues="0 0"/><feFuncA type="linear" slope="0.4" intercept="0"/></feComponentTransfer><feGaussianBlur stdDeviation="6.11111 6.11111"/></filter><filter id="fx30" x="-10%" y="-10%" width="120%" height="120%" filterUnits="userSpaceOnUse" primitiveUnits="userSpaceOnUse"><feComponentTransfer color-interpolation-filters="sRGB"><feFuncR type="discrete" tableValues="0 0"/><feFuncG type="discrete" tableValues="0 0"/><feFuncB type="discrete" tableValues="0 0"/><feFuncA type="linear" slope="0.4" intercept="0"/></feComponentTransfer><feGaussianBlur stdDeviation="6.11111 6.11111"/></filter><filter id="fx31" x="-10%" y="-10%" width="120%" height="120%" filterUnits="userSpaceOnUse" primitiveUnits="userSpaceOnUse"><feComponentTransfer color-interpolation-filters="sRGB"><feFuncR type="discrete" tableValues="0 0"/><feFuncG type="discrete" tableValues="0 0"/><feFuncB type="discrete" tableValues="0 0"/><feFuncA type="linear" slope="0.4" intercept="0"/></feComponentTransfer><feGaussianBlur stdDeviation="6.11111 6.11111"/></filter><filter id="fx32" x="-10%" y="-10%" width="120%" height="120%" filterUnits="userSpaceOnUse" primitiveUnits="userSpaceOnUse"><feComponentTransfer color-interpolation-filters="sRGB"><feFuncR type="discrete" tableValues="0 0"/><feFuncG type="discrete" tableValues="0 0"/><feFuncB type="discrete" tableValues="0 0"/><feFuncA type="linear" slope="0.4" intercept="0"/></feComponentTransfer><feGaussianBlur stdDeviation="6.11111 6.11111"/></filter><filter id="fx33" x="-10%" y="-10%" width="120%" height="120%" filterUnits="userSpaceOnUse" primitiveUnits="userSpaceOnUse"><feComponentTransfer color-interpolation-filters="sRGB"><feFuncR type="discrete" tableValues="0 0"/><feFuncG type="discrete" tableValues="0 0"/><feFuncB type="discrete" tableValues="0 0"/><feFuncA type="linear" slope="0.4" intercept="0"/></feComponentTransfer><feGaussianBlur stdDeviation="6.11111 6.11111"/></filter><filter id="fx34" x="-10%" y="-10%" width="120%" height="120%" filterUnits="userSpaceOnUse" primitiveUnits="userSpaceOnUse"><feComponentTransfer color-interpolation-filters="sRGB"><feFuncR type="discrete" tableValues="0 0"/><feFuncG type="discrete" tableValues="0 0"/><feFuncB type="discrete" tableValues="0 0"/><feFuncA type="linear" slope="0.4" intercept="0"/></feComponentTransfer><feGaussianBlur stdDeviation="6.11111 6.11111"/></filter><filter id="fx35" x="-10%" y="-10%" width="120%" height="120%" filterUnits="userSpaceOnUse" primitiveUnits="userSpaceOnUse"><feComponentTransfer color-interpolation-filters="sRGB"><feFuncR type="discrete" tableValues="0 0"/><feFuncG type="discrete" tableValues="0 0"/><feFuncB type="discrete" tableValues="0 0"/><feFuncA type="linear" slope="0.4" intercept="0"/></feComponentTransfer><feGaussianBlur stdDeviation="6.11111 6.11111"/></filter><filter id="fx36" x="-10%" y="-10%" width="120%" height="120%" filterUnits="userSpaceOnUse" primitiveUnits="userSpaceOnUse"><feComponentTransfer color-interpolation-filters="sRGB"><feFuncR type="discrete" tableValues="0 0"/><feFuncG type="discrete" tableValues="0 0"/><feFuncB type="discrete" tableValues="0 0"/><feFuncA type="linear" slope="0.4" intercept="0"/></feComponentTransfer><feGaussianBlur stdDeviation="6.11111 6.11111"/></filter><filter id="fx37" x="-10%" y="-10%" width="120%" height="120%" filterUnits="userSpaceOnUse" primitiveUnits="userSpaceOnUse"><feComponentTransfer color-interpolation-filters="sRGB"><feFuncR type="discrete" tableValues="0 0"/><feFuncG type="discrete" tableValues="0 0"/><feFuncB type="discrete" tableValues="0 0"/><feFuncA type="linear" slope="0.4" intercept="0"/></feComponentTransfer><feGaussianBlur stdDeviation="6.11111 6.11111"/></filter><filter id="fx38" x="-10%" y="-10%" width="120%" height="120%" filterUnits="userSpaceOnUse" primitiveUnits="userSpaceOnUse"><feComponentTransfer color-interpolation-filters="sRGB"><feFuncR type="discrete" tableValues="0 0"/><feFuncG type="discrete" tableValues="0 0"/><feFuncB type="discrete" tableValues="0 0"/><feFuncA type="linear" slope="0.4" intercept="0"/></feComponentTransfer><feGaussianBlur stdDeviation="6.11111 6.11111"/></filter><filter id="fx39" x="-10%" y="-10%" width="120%" height="120%" filterUnits="userSpaceOnUse" primitiveUnits="userSpaceOnUse"><feComponentTransfer color-interpolation-filters="sRGB"><feFuncR type="discrete" tableValues="0 0"/><feFuncG type="discrete" tableValues="0 0"/><feFuncB type="discrete" tableValues="0 0"/><feFuncA type="linear" slope="0.4" intercept="0"/></feComponentTransfer><feGaussianBlur stdDeviation="6.11111 6.11111"/></filter><clipPath id="clip40"><rect x="127" y="2524" width="3405" height="1432"/></clipPath><clipPath id="clip41"><path d="M663 3432 663 3627 2857 3627 2857 3432ZM127 2524 3532 2524 3532 3956 127 3956Z" fill-rule="evenodd" clip-rule="evenodd"/></clipPath><clipPath id="clip42"><rect x="-16" y="-16" width="684" height="103"/></clipPath><clipPath id="clip43"><rect x="0" y="0" width="2240" height="241"/></clipPath><clipPath id="clip44"><path d="M663 2839 663 3034 2857 3034 2857 2839ZM127 2524 3532 2524 3532 3956 127 3956Z" fill-rule="evenodd" clip-rule="evenodd"/></clipPath><clipPath id="clip45"><rect x="-16" y="-16" width="684" height="103"/></clipPath><clipPath id="clip46"><rect x="0" y="0" width="2240" height="241"/></clipPath><clipPath id="clip47"><path d="M1144 2536.5 1111.5 2569 1111.5 2666.5 1209 2666.5 1241.5 2634 1241.5 2536.5ZM127 2524 3532 2524 3532 3956 127 3956Z" fill-rule="evenodd" clip-rule="evenodd"/></clipPath><clipPath id="clip48"><rect x="-16" y="-16" width="86" height="86"/></clipPath><clipPath id="clip49"><rect x="0" y="0" width="177" height="177"/></clipPath><clipPath id="clip50"><path d="M2360.75 2536.5 2328.5 2568.75 2328.5 2666.5 2425.25 2666.5 2457.5 2634.25 2457.5 2536.5ZM127 2524 3532 2524 3532 3956 127 3956Z" fill-rule="evenodd" clip-rule="evenodd"/></clipPath><clipPath id="clip51"><rect x="-16" y="-16" width="86" height="86"/></clipPath><clipPath id="clip52"><rect x="0" y="0" width="176" height="177"/></clipPath><clipPath id="clip53"><path d="M1701 3790.5 1668.5 3823 1668.5 3920.5 1766 3920.5 1798.5 3888 1798.5 3790.5ZM127 2524 3532 2524 3532 3956 127 3956Z" fill-rule="evenodd" clip-rule="evenodd"/></clipPath><clipPath id="clip54"><rect x="-16" y="-16" width="86" height="86"/></clipPath><clipPath id="clip55"><rect x="0" y="0" width="177" height="177"/></clipPath><clipPath id="clip56"><path d="M783 3226.5 750.5 3259 750.5 3356.5 848 3356.5 880.5 3324 880.5 3226.5ZM127 2524 3532 2524 3532 3956 127 3956Z" fill-rule="evenodd" clip-rule="evenodd"/></clipPath><clipPath id="clip57"><rect x="-16" y="-16" width="86" height="86"/></clipPath><clipPath id="clip58"><rect x="0" y="0" width="177" height="177"/></clipPath><clipPath id="clip59"><path d="M1257 3226.5 1224.5 3259 1224.5 3356.5 1322 3356.5 1354.5 3324 1354.5 3226.5ZM127 2524 3532 2524 3532 3956 127 3956Z" fill-rule="evenodd" clip-rule="evenodd"/></clipPath><clipPath id="clip60"><rect x="-16" y="-16" width="86" height="86"/></clipPath><clipPath id="clip61"><rect x="0" y="0" width="177" height="177"/></clipPath><clipPath id="clip62"><path d="M1731 3221.5 1698.5 3254 1698.5 3351.5 1796 3351.5 1828.5 3319 1828.5 3221.5ZM127 2524 3532 2524 3532 3956 127 3956Z" fill-rule="evenodd" clip-rule="evenodd"/></clipPath><clipPath id="clip63"><rect x="-16" y="-16" width="86" height="86"/></clipPath><clipPath id="clip64"><rect x="0" y="0" width="177" height="177"/></clipPath><clipPath id="clip65"><path d="M2205 3226.5 2172.5 3259 2172.5 3356.5 2270 3356.5 2302.5 3324 2302.5 3226.5ZM127 2524 3532 2524 3532 3956 127 3956Z" fill-rule="evenodd" clip-rule="evenodd"/></clipPath><clipPath id="clip66"><rect x="-16" y="-16" width="86" height="86"/></clipPath><clipPath id="clip67"><rect x="0" y="0" width="177" height="177"/></clipPath><clipPath id="clip68"><path d="M2679 3221.5 2646.5 3254 2646.5 3351.5 2744 3351.5 2776.5 3319 2776.5 3221.5ZM127 2524 3532 2524 3532 3956 127 3956Z" fill-rule="evenodd" clip-rule="evenodd"/></clipPath><clipPath id="clip69"><rect x="-16" y="-16" width="86" height="86"/></clipPath><clipPath id="clip70"><rect x="0" y="0" width="177" height="177"/></clipPath><clipPath id="clip71"><rect x="-16" y="-16" width="79" height="79"/></clipPath><clipPath id="clip72"><rect x="0" y="0" width="155" height="155"/></clipPath><clipPath id="clip73"><rect x="-16" y="-16" width="65" height="68"/></clipPath><clipPath id="clip74"><rect x="0" y="0" width="108" height="118"/></clipPath><clipPath id="clip75"><rect x="-16" y="-16" width="79" height="79"/></clipPath><clipPath id="clip76"><rect x="0" y="0" width="155" height="155"/></clipPath><clipPath id="clip77"><rect x="-16" y="-16" width="62" height="68"/></clipPath><clipPath id="clip78"><rect x="0" y="0" width="102" height="122"/></clipPath><clipPath id="clip79"><path d="M942.5 2887.5 942.5 2995.5 1050.5 2995.5 1050.5 2887.5ZM127 2524 3532 2524 3532 3956 127 3956Z" fill-rule="evenodd" clip-rule="evenodd"/></clipPath><clipPath id="clip80"><rect x="-16" y="-16" width="79" height="79"/></clipPath><clipPath id="clip81"><rect x="0" y="0" width="155" height="155"/></clipPath><clipPath id="clip82"><path d="M995.93 2898.5C993.255 2899.53 990.269 2899.51 987.904 2901.6 985.953 2903.32 984.814 2906.52 983.623 2909.35 981.972 2913.26 980.911 2923.02 980.412 2926.39 980.234 2929.49 980.115 2932.6 979.877 2935.69 979.758 2937.25 979.428 2938.77 979.342 2940.34 979.341 2940.36 979.215 2961.16 977.737 2969 976.08 2977.8 977.511 2970.43 975.597 2975.98 974.876 2978.07 975.354 2978.9 973.991 2980.63 973.023 2981.85 972.067 2983.73 970.781 2983.73L966.5 2983.73 1027.5 2984.5 1019.47 2953.51C1016.59 2942.29 1016.28 2939.76 1011.98 2926.39 1010.37 2921.36 1008.73 2916.31 1006.63 2911.67 1003.23 2904.16 1000.96 2903.13 995.93 2898.5ZM127 2524 3532 2524 3532 3956 127 3956Z" fill-rule="evenodd" clip-rule="evenodd"/></clipPath><clipPath id="clip83"><rect x="-16" y="-16" width="65" height="72"/></clipPath><clipPath id="clip84"><rect x="0" y="0" width="105" height="133"/></clipPath><clipPath id="clip85"><path d="M1161.5 2887.5 1161.5 2995.5 1269.5 2995.5 1269.5 2887.5ZM127 2524 3532 2524 3532 3956 127 3956Z" fill-rule="evenodd" clip-rule="evenodd"/></clipPath><clipPath id="clip86"><rect x="-16" y="-16" width="79" height="79"/></clipPath><clipPath id="clip87"><rect x="0" y="0" width="155" height="155"/></clipPath><clipPath id="clip88"><path d="M1186.61 2898.5C1186.61 2903.85 1186.36 2909.21 1186.61 2914.54 1186.67 2915.75 1187.32 2916.81 1187.56 2917.98 1189.12 2925.59 1189.02 2925.66 1188.62 2924.19L1188.28 2922.82 1187.87 2921.13C1187.64 2920.17 1187.87 2921.2 1188.17 2922.42L1188.28 2922.82 1188.63 2924.28C1189.03 2925.97 1189.6 2928.39 1190.38 2931.74 1191.33 2933.65 1192.35 2935.5 1193.21 2937.47 1197.37 2946.96 1197.56 2950.32 1203.57 2958.09 1209.53 2965.8 1214.73 2970.61 1222.41 2975.28 1224.81 2976.74 1227.49 2977.41 1229.95 2978.72 1235.85 2981.86 1237.57 2984.92 1244.08 2984.45 1247.28 2984.22 1250.36 2982.92 1253.5 2982.16ZM127 2524 3532 2524 3532 3956 127 3956Z" fill-rule="evenodd" clip-rule="evenodd"/></clipPath><clipPath id="clip89"><rect x="-16" y="-16" width="65" height="72"/></clipPath><clipPath id="clip90"><rect x="0" y="0" width="111" height="133"/></clipPath><clipPath id="clip91"><path d="M2257.5 2887.5 2257.5 2995.5 2365.5 2995.5 2365.5 2887.5ZM127 2524 3532 2524 3532 3956 127 3956Z" fill-rule="evenodd" clip-rule="evenodd"/></clipPath><clipPath id="clip92"><rect x="-16" y="-16" width="79" height="79"/></clipPath><clipPath id="clip93"><rect x="0" y="0" width="155" height="155"/></clipPath><clipPath id="clip94"><path d="M2295.14 2898.5C2292.29 2901.42 2287.87 2904.57 2286.27 2910.04 2284.8 2915.08 2282.86 2925.77 2282.86 2925.77 2282.15 2933.46 2283.79 2933.11 2281.5 2933.11L2310.74 2958.15 2310.82 2959.33C2311.27 2961.78 2311.49 2964.36 2312.18 2966.67 2317.25 2983.55 2328.91 2979.04 2341.5 2984.5L2310.74 2958.15 2310.09 2948.86C2309.46 2939.23 2308.97 2931.64 2307.41 2921.57 2306.81 2917.7 2306.27 2913.77 2305.36 2910.04 2304.78 2907.63 2302.2 2901.83 2300.59 2900.6 2298.91 2899.31 2296.95 2899.2 2295.14 2898.5ZM127 2524 3532 2524 3532 3956 127 3956Z" fill-rule="evenodd" clip-rule="evenodd"/></clipPath><clipPath id="clip95"><rect x="-16" y="-16" width="65" height="72"/></clipPath><clipPath id="clip96"><rect x="0" y="0" width="105" height="133"/></clipPath><clipPath id="clip97"><path d="M2476.5 2887.5 2476.5 2995.5 2584.5 2995.5 2584.5 2887.5ZM127 2524 3532 2524 3532 3956 127 3956Z" fill-rule="evenodd" clip-rule="evenodd"/></clipPath><clipPath id="clip98"><rect x="-16" y="-16" width="79" height="79"/></clipPath><clipPath id="clip99"><rect x="0" y="0" width="155" height="155"/></clipPath><clipPath id="clip100"><path d="M2495.5 2898.63 2528.16 2938.69 2529.04 2948.81C2529.25 2951.05 2529.48 2953.29 2529.77 2955.51 2530.4 2960.32 2531.12 2962.97 2532.69 2967.77 2536.13 2978.31 2533.96 2969.15 2535.6 2976.69 2536.58 2978.18 2537.42 2979.89 2538.52 2981.15 2539.39 2982.15 2540.35 2983.25 2541.44 2983.38 2549.44 2984.38 2557.48 2984.13 2565.5 2984.5L2528.16 2938.69 2527.58 2932.09C2526.87 2926.79 2525.53 2921.72 2524.67 2916.47 2524.42 2914.99 2524.33 2913.42 2523.94 2912.01 2523.59 2910.78 2523.05 2909.69 2522.48 2908.67 2521.37 2906.68 2519.16 2903.19 2517.38 2901.98 2515.87 2900.95 2511.25 2898.75 2509.35 2898.63 2504.74 2898.34 2500.12 2898.63 2495.5 2898.63ZM127 2524 3532 2524 3532 3956 127 3956Z" fill-rule="evenodd" clip-rule="evenodd"/></clipPath><clipPath id="clip101"><rect x="-16" y="-16" width="65" height="72"/></clipPath><clipPath id="clip102"><rect x="0" y="0" width="110" height="133"/></clipPath><clipPath id="clip103"><path d="M1380.5 2887.5 1380.5 2995.5 1488.5 2995.5 1488.5 2887.5ZM127 2524 3532 2524 3532 3956 127 3956Z" fill-rule="evenodd" clip-rule="evenodd"/></clipPath><clipPath id="clip104"><rect x="-16" y="-16" width="79" height="79"/></clipPath><clipPath id="clip105"><rect x="0" y="0" width="155" height="155"/></clipPath><clipPath id="clip106"><path d="M1434.93 2898.5C1432.25 2899.53 1429.27 2899.51 1426.9 2901.6 1424.95 2903.32 1423.81 2906.52 1422.62 2909.35 1420.97 2913.26 1419.91 2923.02 1419.41 2926.39 1419.23 2929.49 1419.11 2932.6 1418.88 2935.69 1418.76 2937.25 1418.43 2938.77 1418.34 2940.34 1418.34 2940.36 1418.21 2961.16 1416.74 2969 1415.08 2977.8 1416.51 2970.43 1414.6 2975.98 1413.88 2978.07 1414.35 2978.9 1412.99 2980.63 1412.02 2981.85 1411.07 2983.73 1409.78 2983.73L1405.5 2983.73 1466.5 2984.5 1458.47 2953.51C1455.59 2942.29 1455.28 2939.76 1450.98 2926.39 1449.37 2921.36 1447.73 2916.31 1445.63 2911.67 1442.23 2904.16 1439.96 2903.13 1434.93 2898.5ZM127 2524 3532 2524 3532 3956 127 3956Z" fill-rule="evenodd" clip-rule="evenodd"/></clipPath><clipPath id="clip107"><rect x="-16" y="-16" width="65" height="72"/></clipPath><clipPath id="clip108"><rect x="0" y="0" width="105" height="133"/></clipPath><clipPath id="clip109"><rect x="-16" y="-16" width="79" height="79"/></clipPath><clipPath id="clip110"><rect x="0" y="0" width="155" height="155"/></clipPath><clipPath id="clip111"><rect x="-16" y="-16" width="65" height="68"/></clipPath><clipPath id="clip112"><rect x="0" y="0" width="108" height="118"/></clipPath><clipPath id="clip113"><path d="M1818.5 2887.5 1818.5 2995.5 1927.5 2995.5 1927.5 2887.5ZM127 2524 3532 2524 3532 3956 127 3956Z" fill-rule="evenodd" clip-rule="evenodd"/></clipPath><clipPath id="clip114"><rect x="-16" y="-16" width="79" height="79"/></clipPath><clipPath id="clip115"><rect x="0" y="0" width="156" height="155"/></clipPath><clipPath id="clip116"><path d="M1838.5 2898.63 1870.69 2938.69 1871.56 2948.81C1871.77 2951.05 1872 2953.29 1872.28 2955.51 1872.9 2960.32 1873.61 2962.97 1875.16 2967.77 1878.55 2978.31 1876.41 2969.15 1878.03 2976.69 1878.99 2978.18 1879.82 2979.89 1880.91 2981.15 1881.76 2982.15 1882.71 2983.25 1883.78 2983.38 1891.67 2984.38 1899.59 2984.13 1907.5 2984.5L1870.69 2938.69 1870.12 2932.09C1869.42 2926.79 1868.1 2921.72 1867.25 2916.47 1867.01 2914.99 1866.92 2913.42 1866.53 2912.01 1866.19 2910.78 1865.66 2909.69 1865.09 2908.67 1864 2906.68 1861.82 2903.19 1860.06 2901.98 1858.58 2900.95 1854.02 2898.75 1852.16 2898.63 1847.61 2898.34 1843.05 2898.63 1838.5 2898.63ZM127 2524 3532 2524 3532 3956 127 3956Z" fill-rule="evenodd" clip-rule="evenodd"/></clipPath><clipPath id="clip117"><rect x="-16" y="-16" width="65" height="72"/></clipPath><clipPath id="clip118"><rect x="0" y="0" width="109" height="133"/></clipPath><clipPath id="clip119"><rect x="-16" y="-16" width="79" height="79"/></clipPath><clipPath id="clip120"><rect x="0" y="0" width="155" height="155"/></clipPath><clipPath id="clip121"><rect x="-16" y="-16" width="62" height="68"/></clipPath><clipPath id="clip122"><rect x="0" y="0" width="101" height="122"/></clipPath><clipPath id="clip123"><rect x="-16" y="-16" width="79" height="79"/></clipPath><clipPath id="clip124"><rect x="0" y="0" width="155" height="155"/></clipPath><clipPath id="clip125"><rect x="-16" y="-16" width="62" height="68"/></clipPath><clipPath id="clip126"><rect x="0" y="0" width="102" height="151"/></clipPath><clipPath id="clip127"><rect x="-16" y="-16" width="79" height="79"/></clipPath><clipPath id="clip128"><rect x="0" y="0" width="155" height="155"/></clipPath><clipPath id="clip129"><rect x="-16" y="-16" width="65" height="68"/></clipPath><clipPath id="clip130"><rect x="0" y="0" width="112" height="124"/></clipPath><clipPath id="clip131"><rect x="-16" y="-16" width="79" height="79"/></clipPath><clipPath id="clip132"><rect x="0" y="0" width="155" height="155"/></clipPath><clipPath id="clip133"><rect x="-16" y="-16" width="62" height="68"/></clipPath><clipPath id="clip134"><rect x="0" y="0" width="102" height="122"/></clipPath><clipPath id="clip135"><path d="M2174.5 3479.5 2174.5 3587.5 2282.5 3587.5 2282.5 3479.5ZM127 2524 3532 2524 3532 3956 127 3956Z" fill-rule="evenodd" clip-rule="evenodd"/></clipPath><clipPath id="clip136"><rect x="-16" y="-16" width="79" height="79"/></clipPath><clipPath id="clip137"><rect x="0" y="0" width="155" height="155"/></clipPath><clipPath id="clip138"><path d="M2212.14 3490.5C2209.29 3493.42 2204.87 3496.57 2203.27 3502.04 2201.8 3507.08 2199.86 3517.77 2199.86 3517.77 2199.15 3525.46 2200.79 3525.11 2198.5 3525.11L2227.74 3550.15 2227.82 3551.33C2228.27 3553.78 2228.49 3556.36 2229.18 3558.67 2234.25 3575.55 2245.91 3571.04 2258.5 3576.5L2227.74 3550.15 2227.09 3540.86C2226.46 3531.23 2225.97 3523.64 2224.41 3513.57 2223.81 3509.7 2223.27 3505.77 2222.36 3502.04 2221.78 3499.63 2219.2 3493.83 2217.59 3492.6 2215.91 3491.31 2213.95 3491.2 2212.14 3490.5ZM127 2524 3532 2524 3532 3956 127 3956Z" fill-rule="evenodd" clip-rule="evenodd"/></clipPath><clipPath id="clip139"><rect x="-16" y="-16" width="65" height="72"/></clipPath><clipPath id="clip140"><rect x="0" y="0" width="105" height="133"/></clipPath><clipPath id="clip141"><path d="M2651.5 3472.5 2651.5 3580.5 2759.5 3580.5 2759.5 3472.5ZM127 2524 3532 2524 3532 3956 127 3956Z" fill-rule="evenodd" clip-rule="evenodd"/></clipPath><clipPath id="clip142"><rect x="-16" y="-16" width="79" height="79"/></clipPath><clipPath id="clip143"><rect x="0" y="0" width="155" height="155"/></clipPath><clipPath id="clip144"><path d="M2671.5 3483.63 2703.69 3523.69 2704.56 3533.81C2704.77 3536.05 2705 3538.29 2705.28 3540.51 2705.9 3545.32 2706.61 3547.97 2708.16 3552.77 2711.55 3563.31 2709.41 3554.15 2711.03 3561.69 2711.99 3563.18 2712.82 3564.89 2713.91 3566.15 2714.76 3567.15 2715.71 3568.25 2716.78 3568.38 2724.67 3569.38 2732.59 3569.13 2740.5 3569.5L2703.69 3523.69 2703.12 3517.09C2702.42 3511.79 2701.1 3506.72 2700.25 3501.47 2700.01 3499.99 2699.92 3498.42 2699.53 3497.01 2699.19 3495.78 2698.66 3494.69 2698.09 3493.67 2697 3491.68 2694.82 3488.19 2693.06 3486.98 2691.58 3485.95 2687.02 3483.75 2685.16 3483.63 2680.61 3483.34 2676.05 3483.63 2671.5 3483.63ZM127 2524 3532 2524 3532 3956 127 3956Z" fill-rule="evenodd" clip-rule="evenodd"/></clipPath><clipPath id="clip145"><rect x="-16" y="-16" width="65" height="72"/></clipPath><clipPath id="clip146"><rect x="0" y="0" width="109" height="133"/></clipPath></defs><g clip-path="url(#clip40)" transform="translate(-127 -2524)"><g clip-path="url(#clip41)"><g clip-path="url(#clip42)" filter="url(#fx0)" transform="translate(650 3419)"><g clip-path="url(#clip43)"><rect x="22.7228" y="22.7227" width="2194" height="195" stroke="#000000" stroke-width="6" stroke-miterlimit="8" stroke-dasharray="22.9167 17.1875" fill="#DBDFEF"/></g></g></g><rect x="663" y="3432" width="2194" height="195" stroke="#000000" stroke-width="5.72917" stroke-miterlimit="8" stroke-dasharray="22.9167 17.1875" fill="#DBDFEF"/><g clip-path="url(#clip44)"><g clip-path="url(#clip45)" filter="url(#fx1)" transform="translate(650 2826)"><g clip-path="url(#clip46)"><rect x="22.7228" y="22.7227" width="2194" height="195" stroke="#000000" stroke-width="6" stroke-miterlimit="8" stroke-dasharray="22.9167 17.1875" fill="#DBDFEF"/></g></g></g><rect x="663" y="2839" width="2194" height="195" stroke="#000000" stroke-width="5.72917" stroke-miterlimit="8" stroke-dasharray="22.9167 17.1875" fill="#DBDFEF"/><g clip-path="url(#clip47)"><g clip-path="url(#clip48)" filter="url(#fx2)" transform="translate(1098 2523)"><g clip-path="url(#clip49)"><rect x="23.2225" y="55.7226" width="97.5004" height="97.4998" fill="#35909E"/><path d="M120.723 55.7226 153.223 23.2227 153.223 120.722 120.723 153.222Z" fill="#2B747F" fill-rule="evenodd"/><path d="M23.2225 55.7226 55.7225 23.2227 153.223 23.2227 120.723 55.7226Z" fill="#5DA6B1" fill-rule="evenodd"/><path d="M23.2225 55.7226 55.7225 23.2227 153.223 23.2227 153.223 120.722 120.723 153.222 23.2225 153.222ZM23.2225 55.7226 120.723 55.7226 153.223 23.2227M120.723 55.7226 120.723 153.222" stroke="#000000" stroke-width="7" stroke-miterlimit="8" fill="none" fill-rule="evenodd"/></g></g></g><rect x="1111.5" y="2569" width="97.5004" height="97.4998" fill="#35909E"/><path d="M1209 2569 1241.5 2536.5 1241.5 2634 1209 2666.5Z" fill="#2B747F" fill-rule="evenodd"/><path d="M1111.5 2569 1144 2536.5 1241.5 2536.5 1209 2569Z" fill="#5DA6B1" fill-rule="evenodd"/><path d="M1111.5 2569 1144 2536.5 1241.5 2536.5 1241.5 2634 1209 2666.5 1111.5 2666.5ZM1111.5 2569 1209 2569 1241.5 2536.5M1209 2569 1209 2666.5" stroke="#000000" stroke-width="6.875" stroke-miterlimit="8" fill="none" fill-rule="evenodd"/><g clip-path="url(#clip50)"><g clip-path="url(#clip51)" filter="url(#fx3)" transform="translate(2315 2523)"><g clip-path="url(#clip52)"><rect x="23.2229" y="55.4726" width="96.75" height="97.75" fill="#35909E"/><path d="M119.973 55.4726 152.223 23.2227 152.223 120.973 119.973 153.223Z" fill="#2B747F" fill-rule="evenodd"/><path d="M23.2229 55.4726 55.4728 23.2227 152.223 23.2227 119.973 55.4726Z" fill="#5DA6B1" fill-rule="evenodd"/><path d="M23.2229 55.4726 55.4728 23.2227 152.223 23.2227 152.223 120.973 119.973 153.223 23.2229 153.223ZM23.2229 55.4726 119.973 55.4726 152.223 23.2227M119.973 55.4726 119.973 153.223" stroke="#000000" stroke-width="7" stroke-miterlimit="8" fill="none" fill-rule="evenodd"/></g></g></g><rect x="2328.5" y="2568.75" width="96.75" height="97.75" fill="#35909E"/><path d="M2425.25 2568.75 2457.5 2536.5 2457.5 2634.25 2425.25 2666.5Z" fill="#2B747F" fill-rule="evenodd"/><path d="M2328.5 2568.75 2360.75 2536.5 2457.5 2536.5 2425.25 2568.75Z" fill="#5DA6B1" fill-rule="evenodd"/><path d="M2328.5 2568.75 2360.75 2536.5 2457.5 2536.5 2457.5 2634.25 2425.25 2666.5 2328.5 2666.5ZM2328.5 2568.75 2425.25 2568.75 2457.5 2536.5M2425.25 2568.75 2425.25 2666.5" stroke="#000000" stroke-width="6.875" stroke-miterlimit="8" fill="none" fill-rule="evenodd"/><path d="M4.13969-3.07407 152.96 197.335 144.681 203.483-4.13969 3.07407ZM158.166 187.047 164.191 221.108 133.327 205.492Z" transform="matrix(-1 0 0 1 1160.19 2666)"/><path d="M1165 2664.76 1213.76 2860.84 1203.75 2863.33 1155 2667.24ZM1222.52 2853.35 1214.97 2887.11 1192.5 2860.82Z"/><path d="M4.94424-1.46336 63.0691 194.923 53.1806 197.85-4.94424 1.46336ZM71.4943 187.052 65.4417 221.108 41.8288 195.832Z" transform="matrix(-1 0 0 1 2376.44 2666)"/><path d="M2380.23 2663.06 2519.24 2863 2510.77 2868.88 2371.77 2668.94ZM2524.76 2852.88 2529.72 2887.11 2499.36 2870.54Z"/><g clip-path="url(#clip53)"><g clip-path="url(#clip54)" filter="url(#fx4)" transform="translate(1655 3777)"><g clip-path="url(#clip55)"><rect x="23.2228" y="55.7225" width="97.5001" height="97.4995" fill="#DF573F"/><path d="M120.723 55.7225 153.223 23.2227 153.223 120.722 120.723 153.222Z" fill="#B34633" fill-rule="evenodd"/><path d="M23.2228 55.7225 55.7226 23.2227 153.223 23.2227 120.723 55.7225Z" fill="#E57865" fill-rule="evenodd"/><path d="M23.2228 55.7225 55.7226 23.2227 153.223 23.2227 153.223 120.722 120.723 153.222 23.2228 153.222ZM23.2228 55.7225 120.723 55.7225 153.223 23.2227M120.723 55.7225 120.723 153.222" stroke="#000000" stroke-width="7" stroke-miterlimit="8" fill="none" fill-rule="evenodd"/></g></g></g><rect x="1668.5" y="3823" width="97.5001" height="97.4995" fill="#DF573F"/><path d="M1766 3823 1798.5 3790.5 1798.5 3888 1766 3920.5Z" fill="#B34633" fill-rule="evenodd"/><path d="M1668.5 3823 1701 3790.5 1798.5 3790.5 1766 3823Z" fill="#E57865" fill-rule="evenodd"/><path d="M1668.5 3823 1701 3790.5 1798.5 3790.5 1798.5 3888 1766 3920.5 1668.5 3920.5ZM1668.5 3823 1766 3823 1798.5 3790.5M1766 3823 1766 3920.5" stroke="#000000" stroke-width="6.875" stroke-miterlimit="8" fill="none" fill-rule="evenodd"/><path d="M2.57619-4.46656 363.597 203.76 358.444 212.693-2.57619 4.46656ZM364.282 192.251 383.353 221.108 348.825 219.05Z" transform="matrix(-1 0 0 1 1160.35 2666)"/><path d="M782.018 2993.81 830.606 3199.24 820.57 3201.61 771.982 2996.19ZM839.455 3191.85 831.522 3225.52 809.348 3198.97Z"/><path d="M999.081 2990.87 1287.74 3205.98 1281.58 3214.24 992.919 2999.13ZM1289.77 3194.63 1305.33 3225.52 1271.28 3219.43Z"/><path d="M1216.92 2990.21 1757.13 3206.56 1753.3 3216.13 1213.08 2999.79ZM1756.18 3195.07 1779.15 3220.93 1744.68 3223.79Z"/><path d="M2378.63 2661.57 2729.34 2869.52 2724.08 2878.39 2373.37 2670.44ZM2730.16 2858.02 2748.88 2887.11 2714.38 2884.63Z"/><path d="M5.15625-1.49397e-05 5.15654 98.7761-5.15596 98.7761-5.15625 1.49397e-05ZM15.469 93.6198 0.000360892 124.557-15.4685 93.6199Z" transform="matrix(-1 0 0 1 797 3356)"/><path d="M5.15621-0.0195858 5.53141 98.7567-4.78101 98.7959-5.15621 0.0195858ZM15.8243 93.5613 0.47313 124.557-15.113 93.6788Z" transform="matrix(-1 0 0 1 1272.47 3356)"/><path d="M5.15625-1.44095e-05 5.15654 103.359-5.15596 103.359-5.15625 1.44095e-05ZM15.469 98.2031 0.000360892 129.141-15.4685 98.2032Z" transform="matrix(-1 0 0 1 1745 3351)"/><path d="M1274.01 3583.25 1727.7 3775.14 1723.68 3784.63 1269.99 3592.75ZM1726.97 3763.63 1749.44 3789.93 1714.92 3792.12Z"/><path d="M798.07 3582.96 1725.09 3779.54 1722.95 3789.62 795.931 3593.04ZM1722.19 3768.38 1749.24 3789.93 1715.77 3798.64Z"/><path d="M1750.15 3587.89 1753.97 3764.04 1743.66 3764.26 1739.84 3588.11ZM1764.17 3758.66 1749.38 3789.93 1733.24 3759.33Z"/><rect x="147" y="2568" width="494" height="133" stroke="#000000" stroke-width="5.72917" stroke-linejoin="round" stroke-miterlimit="10" stroke-dasharray="22.9167 17.1875" fill="none"/><text font-family="Arial,Arial_MSFontService,sans-serif" font-weight="400" font-size="83" transform="matrix(1 0 0 1 281.724 2664)">Inputs</text><rect x="130" y="3180" width="493" height="233" stroke="#000000" stroke-width="5.72917" stroke-linejoin="round" stroke-miterlimit="10" stroke-dasharray="22.9167 17.1875" fill="none"/><text font-family="Arial,Arial_MSFontService,sans-serif" font-weight="400" font-size="83" transform="matrix(1 0 0 1 246.033 3277)">Hidden <tspan font-size="83" x="11.4583" y="99">Nodes</tspan></text><rect x="142" y="3790" width="494" height="133" stroke="#000000" stroke-width="5.72917" stroke-linejoin="round" stroke-miterlimit="10" stroke-dasharray="22.9167 17.1875" fill="none"/><text font-family="Arial,Arial_MSFontService,sans-serif" font-weight="400" font-size="83" transform="matrix(1 0 0 1 265.031 3887)">Output</text><rect x="3027" y="3009" width="493" height="433" stroke="#000000" stroke-width="5.72917" stroke-linejoin="round" stroke-miterlimit="10" stroke-dasharray="22.9167 17.1875" fill="none"/><text font-family="Arial,Arial_MSFontService,sans-serif" font-weight="400" font-size="83" transform="matrix(1 0 0 1 3089.96 3106)">Learnable <tspan font-size="83" x="-2.2915" y="99">Univariate </tspan><tspan font-size="83" x="4.5835" y="198">Activation </tspan><tspan font-size="83" x="4.5835" y="297">Functions</tspan></text><g clip-path="url(#clip56)"><g clip-path="url(#clip57)" filter="url(#fx5)" transform="translate(737 3213)"><g clip-path="url(#clip58)"><rect x="23.2226" y="55.7225" width="97.5001" height="97.4995" fill="#C492EE"/><path d="M120.723 55.7225 153.223 23.2227 153.223 120.722 120.723 153.222Z" fill="#9E75BF" fill-rule="evenodd"/><path d="M23.2226 55.7225 55.7224 23.2227 153.223 23.2227 120.723 55.7225Z" fill="#D0A7F1" fill-rule="evenodd"/><path d="M23.2226 55.7225 55.7224 23.2227 153.223 23.2227 153.223 120.722 120.723 153.222 23.2226 153.222ZM23.2226 55.7225 120.723 55.7225 153.223 23.2227M120.723 55.7225 120.723 153.222" stroke="#000000" stroke-width="7" stroke-miterlimit="8" fill="none" fill-rule="evenodd"/></g></g></g><rect x="750.5" y="3259" width="97.5001" height="97.4995" fill="#C492EE"/><path d="M848 3259 880.5 3226.5 880.5 3324 848 3356.5Z" fill="#9E75BF" fill-rule="evenodd"/><path d="M750.5 3259 783 3226.5 880.5 3226.5 848 3259Z" fill="#D0A7F1" fill-rule="evenodd"/><path d="M750.5 3259 783 3226.5 880.5 3226.5 880.5 3324 848 3356.5 750.5 3356.5ZM750.5 3259 848 3259 880.5 3226.5M848 3259 848 3356.5" stroke="#000000" stroke-width="6.875" stroke-miterlimit="8" fill="none" fill-rule="evenodd"/><g clip-path="url(#clip59)"><g clip-path="url(#clip60)" filter="url(#fx6)" transform="translate(1211 3213)"><g clip-path="url(#clip61)"><rect x="23.2227" y="55.7225" width="97.5001" height="97.4995" fill="#C492EE"/><path d="M120.723 55.7225 153.223 23.2227 153.223 120.722 120.723 153.222Z" fill="#9E75BF" fill-rule="evenodd"/><path d="M23.2227 55.7225 55.7225 23.2227 153.223 23.2227 120.723 55.7225Z" fill="#D0A7F1" fill-rule="evenodd"/><path d="M23.2227 55.7225 55.7225 23.2227 153.223 23.2227 153.223 120.722 120.723 153.222 23.2227 153.222ZM23.2227 55.7225 120.723 55.7225 153.223 23.2227M120.723 55.7225 120.723 153.222" stroke="#000000" stroke-width="7" stroke-miterlimit="8" fill="none" fill-rule="evenodd"/></g></g></g><rect x="1224.5" y="3259" width="97.5001" height="97.4995" fill="#C492EE"/><path d="M1322 3259 1354.5 3226.5 1354.5 3324 1322 3356.5Z" fill="#9E75BF" fill-rule="evenodd"/><path d="M1224.5 3259 1257 3226.5 1354.5 3226.5 1322 3259Z" fill="#D0A7F1" fill-rule="evenodd"/><path d="M1224.5 3259 1257 3226.5 1354.5 3226.5 1354.5 3324 1322 3356.5 1224.5 3356.5ZM1224.5 3259 1322 3259 1354.5 3226.5M1322 3259 1322 3356.5" stroke="#000000" stroke-width="6.875" stroke-miterlimit="8" fill="none" fill-rule="evenodd"/><g clip-path="url(#clip62)"><g clip-path="url(#clip63)" filter="url(#fx7)" transform="translate(1685 3208)"><g clip-path="url(#clip64)"><rect x="23.2227" y="55.7227" width="97.5001" height="97.4995" fill="#C492EE"/><path d="M120.723 55.7227 153.223 23.2229 153.223 120.722 120.723 153.222Z" fill="#9E75BF" fill-rule="evenodd"/><path d="M23.2227 55.7227 55.7225 23.2229 153.223 23.2229 120.723 55.7227Z" fill="#D0A7F1" fill-rule="evenodd"/><path d="M23.2227 55.7227 55.7225 23.2229 153.223 23.2229 153.223 120.722 120.723 153.222 23.2227 153.222ZM23.2227 55.7227 120.723 55.7227 153.223 23.2229M120.723 55.7227 120.723 153.222" stroke="#000000" stroke-width="7" stroke-miterlimit="8" fill="none" fill-rule="evenodd"/></g></g></g><rect x="1698.5" y="3254" width="97.5001" height="97.4995" fill="#C492EE"/><path d="M1796 3254 1828.5 3221.5 1828.5 3319 1796 3351.5Z" fill="#9E75BF" fill-rule="evenodd"/><path d="M1698.5 3254 1731 3221.5 1828.5 3221.5 1796 3254Z" fill="#D0A7F1" fill-rule="evenodd"/><path d="M1698.5 3254 1731 3221.5 1828.5 3221.5 1828.5 3319 1796 3351.5 1698.5 3351.5ZM1698.5 3254 1796 3254 1828.5 3221.5M1796 3254 1796 3351.5" stroke="#000000" stroke-width="6.875" stroke-miterlimit="8" fill="none" fill-rule="evenodd"/><g clip-path="url(#clip65)"><g clip-path="url(#clip66)" filter="url(#fx8)" transform="translate(2159 3213)"><g clip-path="url(#clip67)"><rect x="23.2227" y="55.7225" width="97.5001" height="97.4995" fill="#C492EE"/><path d="M120.723 55.7225 153.223 23.2227 153.223 120.722 120.723 153.222Z" fill="#9E75BF" fill-rule="evenodd"/><path d="M23.2227 55.7225 55.7225 23.2227 153.223 23.2227 120.723 55.7225Z" fill="#D0A7F1" fill-rule="evenodd"/><path d="M23.2227 55.7225 55.7225 23.2227 153.223 23.2227 153.223 120.722 120.723 153.222 23.2227 153.222ZM23.2227 55.7225 120.723 55.7225 153.223 23.2227M120.723 55.7225 120.723 153.222" stroke="#000000" stroke-width="7" stroke-miterlimit="8" fill="none" fill-rule="evenodd"/></g></g></g><rect x="2172.5" y="3259" width="97.5" height="97.4995" fill="#C492EE"/><path d="M2270 3259 2302.5 3226.5 2302.5 3324 2270 3356.5Z" fill="#9E75BF" fill-rule="evenodd"/><path d="M2172.5 3259 2205 3226.5 2302.5 3226.5 2270 3259Z" fill="#D0A7F1" fill-rule="evenodd"/><path d="M2172.5 3259 2205 3226.5 2302.5 3226.5 2302.5 3324 2270 3356.5 2172.5 3356.5ZM2172.5 3259 2270 3259 2302.5 3226.5M2270 3259 2270 3356.5" stroke="#000000" stroke-width="6.875" stroke-miterlimit="8" fill="none" fill-rule="evenodd"/><g clip-path="url(#clip68)"><g clip-path="url(#clip69)" filter="url(#fx9)" transform="translate(2633 3208)"><g clip-path="url(#clip70)"><rect x="23.2227" y="55.7227" width="97.5001" height="97.4995" fill="#C492EE"/><path d="M120.723 55.7227 153.223 23.2229 153.223 120.722 120.723 153.222Z" fill="#9E75BF" fill-rule="evenodd"/><path d="M23.2227 55.7227 55.7225 23.2229 153.223 23.2229 120.723 55.7227Z" fill="#D0A7F1" fill-rule="evenodd"/><path d="M23.2227 55.7227 55.7225 23.2229 153.223 23.2229 153.223 120.722 120.723 153.222 23.2227 153.222ZM23.2227 55.7227 120.723 55.7227 153.223 23.2229M120.723 55.7227 120.723 153.222" stroke="#000000" stroke-width="7" stroke-miterlimit="8" fill="none" fill-rule="evenodd"/></g></g></g><rect x="2646.5" y="3254" width="97.5" height="97.4995" fill="#C492EE"/><path d="M2744 3254 2776.5 3221.5 2776.5 3319 2744 3351.5Z" fill="#9E75BF" fill-rule="evenodd"/><path d="M2646.5 3254 2679 3221.5 2776.5 3221.5 2744 3254Z" fill="#D0A7F1" fill-rule="evenodd"/><path d="M2646.5 3254 2679 3221.5 2776.5 3221.5 2776.5 3319 2744 3351.5 2646.5 3351.5ZM2646.5 3254 2744 3254 2776.5 3221.5M2744 3254 2744 3351.5" stroke="#000000" stroke-width="6.875" stroke-miterlimit="8" fill="none" fill-rule="evenodd"/><g clip-path="url(#clip71)" filter="url(#fx10)" transform="translate(710 2874)"><g clip-path="url(#clip72)"><rect x="0" y="0" width="108" height="108" stroke="#000000" stroke-width="7" stroke-miterlimit="8" stroke-dasharray="20.625 6.875" fill="#C5E0B4" transform="matrix(-1 0 0 1 131.223 23.2227)"/></g></g><rect x="0" y="0" width="108" height="108" stroke="#000000" stroke-width="6.875" stroke-miterlimit="8" stroke-dasharray="20.625 6.875" fill="#C5E0B4" transform="matrix(-1 0 0 1 831.5 2887.5)"/><g clip-path="url(#clip73)" filter="url(#fx11)" transform="translate(736 2894)"><g clip-path="url(#clip74)"><path d="M21.2229 94.2229 21.2229 94.2229C24.0161 93.6055 39.6425 89.6026 45.4391 89.6026 49.4797 89.6026 53.5112 90.2185 57.5472 90.5267 64.6295 76.3388 65.8077 74.9087 71.9616 58.1848 74.0579 52.488 74.8095 45.3041 77.7273 40.6278 78.3039 39.7037 78.9831 38.919 79.4571 37.8556 79.9567 36.7347 80.1546 35.3276 80.6102 34.1594 81.1196 32.8534 81.7634 31.6954 82.34 30.4632 83.7971 23.4578 82.7638 26.4774 85.2228 21.2227" stroke="#000000" stroke-width="7" stroke-miterlimit="8" fill="#C5E0B4" fill-rule="evenodd"/></g></g><path d="M747.5 2978.5 747.5 2978.5C750.293 2977.88 765.92 2973.88 771.716 2973.88 775.757 2973.88 779.788 2974.5 783.824 2974.8 790.907 2960.62 792.085 2959.19 798.239 2942.46 800.335 2936.77 801.087 2929.58 804.005 2924.9 804.581 2923.98 805.26 2923.2 805.734 2922.13 806.234 2921.01 806.432 2919.6 806.888 2918.44 807.397 2917.13 808.041 2915.97 808.617 2914.74 810.074 2907.73 809.041 2910.75 811.5 2905.5" stroke="#000000" stroke-width="6.875" stroke-miterlimit="8" fill="#C5E0B4" fill-rule="evenodd"/><g clip-path="url(#clip75)" filter="url(#fx12)" transform="translate(2682 2874)"><g clip-path="url(#clip76)"><rect x="0" y="0" width="108" height="108" stroke="#000000" stroke-width="7" stroke-miterlimit="8" stroke-dasharray="20.625 6.875" fill="#C5E0B4" transform="matrix(-1 0 0 1 131.223 23.2227)"/></g></g><rect x="0" y="0" width="108" height="108" stroke="#000000" stroke-width="6.875" stroke-miterlimit="8" stroke-dasharray="20.625 6.875" fill="#C5E0B4" transform="matrix(-1 0 0 1 2803.5 2887.5)"/><g clip-path="url(#clip77)" filter="url(#fx13)" transform="translate(2715 2891)"><g clip-path="url(#clip78)"><path d="M23.2227 20.2229 23.2227 20.2229C23.3783 29.8928 23.2241 39.5926 23.6893 49.2327 23.9961 55.5896 25.1619 58.2875 26.0227 63.7376 26.3422 65.7604 26.3896 68.228 26.956 70.1842 28.1905 74.4475 27.5693 70.8609 29.2893 75.0192 29.6937 75.9967 29.9485 77.1385 30.2227 78.2425 30.4165 79.0233 30.3744 80.0074 30.6893 80.66 31.9569 83.2866 33.4893 85.495 34.8893 87.9125 35.356 88.7183 35.6632 89.9695 36.2893 90.3299 37.2227 90.8671 38.2095 91.1818 39.0893 91.9416 41.1526 93.723 41.6159 94.3705 44.2227 95.1649 45.7621 95.6341 47.3337 95.702 48.8893 95.9707 49.5116 96.2394 50.1299 96.5364 50.756 96.7766 59.7324 100.221 58.9493 96.7391 75.4893 94.3591 75.956 94.0904 76.48 94.0244 76.8894 93.5533 77.4385 92.921 77.774 91.8477 78.2894 91.1358 78.5609 90.7605 78.9116 90.5987 79.2227 90.3299" stroke="#000000" stroke-width="7" stroke-miterlimit="8" fill="#C5E0B4" fill-rule="evenodd"/></g></g><path d="M2728.5 2901.5 2728.5 2901.5C2728.66 2911.17 2728.5 2920.87 2728.97 2930.51 2729.27 2936.87 2730.44 2939.56 2731.3 2945.01 2731.62 2947.04 2731.67 2949.51 2732.23 2951.46 2733.47 2955.72 2732.85 2952.14 2734.57 2956.3 2734.97 2957.27 2735.23 2958.42 2735.5 2959.52 2735.69 2960.3 2735.65 2961.28 2735.97 2961.94 2737.23 2964.56 2738.77 2966.77 2740.17 2969.19 2740.63 2970 2740.94 2971.25 2741.57 2971.61 2742.5 2972.14 2743.49 2972.46 2744.37 2973.22 2746.43 2975 2746.89 2975.65 2749.5 2976.44 2751.04 2976.91 2752.61 2976.98 2754.17 2977.25 2754.79 2977.52 2755.41 2977.81 2756.03 2978.05 2765.01 2981.5 2764.23 2978.02 2780.77 2975.64 2781.23 2975.37 2781.76 2975.3 2782.17 2974.83 2782.72 2974.2 2783.05 2973.12 2783.57 2972.41 2783.84 2972.04 2784.19 2971.88 2784.5 2971.61" stroke="#000000" stroke-width="6.875" stroke-miterlimit="8" fill="#C5E0B4" fill-rule="evenodd"/><g clip-path="url(#clip79)"><g clip-path="url(#clip80)" filter="url(#fx14)" transform="translate(929 2874)"><g clip-path="url(#clip81)"><rect x="0" y="0" width="108" height="108" stroke="#000000" stroke-width="7" stroke-miterlimit="8" stroke-dasharray="20.625 6.875" fill="#C5E0B4" transform="matrix(-1 0 0 1 131.223 23.2227)"/></g></g></g><rect x="0" y="0" width="108" height="108" stroke="#000000" stroke-width="6.875" stroke-miterlimit="8" stroke-dasharray="20.625 6.875" fill="#C5E0B4" transform="matrix(-1 0 0 1 1050.5 2887.5)"/><g clip-path="url(#clip82)"><g clip-path="url(#clip83)" filter="url(#fx15)" transform="translate(956 2884)"><g clip-path="url(#clip84)"><path d="M0 85.9999 0 85.9999 8.02629 55.009C10.9137 43.7867 11.2245 41.2563 15.5175 27.8919 17.1326 22.8641 18.7696 17.8094 20.8684 13.1712 24.2673 5.65956 26.5406 4.63428 31.5701 0 34.2455 1.03303 37.2312 1.01448 39.5964 3.0991 41.5475 4.8187 42.686 8.02481 43.8771 10.8468 45.5283 14.7593 46.5886 24.5198 47.0876 27.8919 47.266 30.991 47.3855 34.0983 47.6227 37.1892 47.7425 38.7505 48.0724 40.2717 48.1578 41.8378 48.1588 41.8571 48.2855 62.6599 49.763 70.5044 51.4196 79.2993 49.9891 71.9339 51.9034 77.4774 52.6244 79.5652 52.1455 80.3991 53.5086 82.1261 54.4765 83.3524 55.433 85.2252 56.7191 85.2252L60.9998 85.2252" stroke="#000000" stroke-width="7" stroke-miterlimit="8" fill="#C5E0B4" fill-rule="evenodd" transform="matrix(-1 0 0 1 81.2227 24.2227)"/></g></g></g><path d="M0 85.9999 0 85.9999 8.02629 55.009C10.9137 43.7867 11.2245 41.2563 15.5175 27.8919 17.1326 22.8641 18.7696 17.8094 20.8684 13.1712 24.2673 5.65956 26.5406 4.63428 31.5701 0 34.2455 1.03303 37.2312 1.01448 39.5964 3.0991 41.5475 4.8187 42.686 8.02481 43.8771 10.8468 45.5283 14.7593 46.5886 24.5198 47.0876 27.8919 47.266 30.991 47.3855 34.0983 47.6227 37.1892 47.7425 38.7505 48.0724 40.2717 48.1578 41.8378 48.1588 41.8571 48.2855 62.6599 49.763 70.5044 51.4196 79.2993 49.9891 71.9339 51.9034 77.4774 52.6244 79.5652 52.1455 80.3991 53.5086 82.1261 54.4765 83.3524 55.433 85.2252 56.7191 85.2252L60.9998 85.2252" stroke="#000000" stroke-width="6.875" stroke-miterlimit="8" fill="#C5E0B4" fill-rule="evenodd" transform="matrix(-1 0 0 1 1027.5 2898.5)"/><g clip-path="url(#clip85)"><g clip-path="url(#clip86)" filter="url(#fx16)" transform="translate(1148 2874)"><g clip-path="url(#clip87)"><rect x="0" y="0" width="108" height="108" stroke="#000000" stroke-width="7" stroke-miterlimit="8" stroke-dasharray="20.625 6.875" fill="#C5E0B4" transform="matrix(-1 0 0 1 131.223 23.2227)"/></g></g></g><rect x="0" y="0" width="108" height="108" stroke="#000000" stroke-width="6.875" stroke-miterlimit="8" stroke-dasharray="20.625 6.875" fill="#C5E0B4" transform="matrix(-1 0 0 1 1269.5 2887.5)"/><g clip-path="url(#clip88)"><g clip-path="url(#clip89)" filter="url(#fx17)" transform="translate(1173 2885)"><g clip-path="url(#clip90)"><path d="M0 83.6607 0 83.6607C3.14016 84.4247 6.2236 85.724 9.42047 85.9528 15.9338 86.4188 17.6482 83.3644 23.5512 80.2226 26.0092 78.9143 28.6878 78.2441 31.0876 76.7845 38.7712 72.1106 43.9689 67.2971 49.9285 59.5939 55.9424 51.8206 56.1272 48.4627 60.291 38.9652 61.1527 36.9997 62.1751 35.1451 63.1172 33.2351 69.4114 6.43518 61.7721 39.78 65.9433 19.4826 66.1841 18.3106 66.8271 17.2505 66.8854 16.0445 67.1436 10.7056 66.8854 5.34817 66.8854 0L66.8854 0" stroke="#000000" stroke-width="7" stroke-miterlimit="8" fill="#C5E0B4" fill-rule="evenodd" transform="matrix(-1 0 0 1 90.2229 23.2227)"/></g></g></g><path d="M0 83.6607 0 83.6607C3.14016 84.4247 6.2236 85.724 9.42047 85.9528 15.9338 86.4188 17.6482 83.3644 23.5512 80.2226 26.0092 78.9143 28.6878 78.2441 31.0876 76.7845 38.7712 72.1106 43.9689 67.2971 49.9285 59.5939 55.9424 51.8206 56.1272 48.4627 60.291 38.9652 61.1527 36.9997 62.1751 35.1451 63.1172 33.2351 69.4114 6.43518 61.7721 39.78 65.9433 19.4826 66.1841 18.3106 66.8271 17.2505 66.8854 16.0445 67.1436 10.7056 66.8854 5.34817 66.8854 0L66.8854 0" stroke="#000000" stroke-width="6.875" stroke-miterlimit="8" fill="#C5E0B4" fill-rule="evenodd" transform="matrix(-1 0 0 1 1253.5 2898.5)"/><g clip-path="url(#clip91)"><g clip-path="url(#clip92)" filter="url(#fx18)" transform="translate(2244 2874)"><g clip-path="url(#clip93)"><rect x="0" y="0" width="108" height="108" stroke="#000000" stroke-width="7" stroke-miterlimit="8" stroke-dasharray="20.625 6.875" fill="#C5E0B4" transform="matrix(-1 0 0 1 131.223 23.2227)"/></g></g></g><rect x="0" y="0" width="108" height="108" stroke="#000000" stroke-width="6.875" stroke-miterlimit="8" stroke-dasharray="20.625 6.875" fill="#C5E0B4" transform="matrix(-1 0 0 1 2365.5 2887.5)"/><g clip-path="url(#clip94)"><g clip-path="url(#clip95)" filter="url(#fx19)" transform="translate(2268 2884)"><g clip-path="url(#clip96)"><path d="M0 85.9999 0 85.9999C12.5924 80.5367 24.2543 85.0477 29.3183 68.1707 30.0116 65.8598 30.2274 63.2764 30.6819 60.8292 31.83 45.5237 32.014 36.4917 34.091 23.0732 34.6912 19.1956 35.2266 15.2687 36.1365 11.5366 36.7224 9.13312 39.3025 3.33335 40.9092 2.09756 42.5855 0.808262 44.5456 0.699186 46.3638 0 49.2102 2.9189 53.6288 6.07212 55.2274 11.5366 56.7021 16.5773 58.6365 27.2683 58.6365 27.2683 59.3504 34.9559 57.7113 34.6097 60.0002 34.6097" stroke="#000000" stroke-width="7" stroke-miterlimit="8" fill="#C5E0B4" fill-rule="evenodd" transform="matrix(-1 0 0 1 83.2229 24.2227)"/></g></g></g><path d="M0 85.9999 0 85.9999C12.5924 80.5367 24.2543 85.0477 29.3183 68.1707 30.0116 65.8598 30.2274 63.2764 30.6819 60.8292 31.83 45.5237 32.014 36.4917 34.091 23.0732 34.6912 19.1956 35.2266 15.2687 36.1365 11.5366 36.7224 9.13312 39.3025 3.33335 40.9092 2.09756 42.5855 0.808262 44.5456 0.699186 46.3638 0 49.2102 2.9189 53.6288 6.07212 55.2274 11.5366 56.7021 16.5773 58.6365 27.2683 58.6365 27.2683 59.3504 34.9559 57.7113 34.6097 60.0002 34.6097" stroke="#000000" stroke-width="6.875" stroke-miterlimit="8" fill="#C5E0B4" fill-rule="evenodd" transform="matrix(-1 0 0 1 2341.5 2898.5)"/><g clip-path="url(#clip97)"><g clip-path="url(#clip98)" filter="url(#fx20)" transform="translate(2463 2874)"><g clip-path="url(#clip99)"><rect x="0" y="0" width="108" height="108" stroke="#000000" stroke-width="7" stroke-miterlimit="8" stroke-dasharray="20.625 6.875" fill="#C5E0B4" transform="matrix(-1 0 0 1 131.223 23.2227)"/></g></g></g><rect x="0" y="0" width="108" height="108" stroke="#000000" stroke-width="6.875" stroke-miterlimit="8" stroke-dasharray="20.625 6.875" fill="#C5E0B4" transform="matrix(-1 0 0 1 2584.5 2887.5)"/><g clip-path="url(#clip100)"><g clip-path="url(#clip101)" filter="url(#fx21)" transform="translate(2485 2885)"><g clip-path="url(#clip102)"><path d="M0 85.9999 0 85.9999C8.02081 85.6282 16.0642 85.8766 24.0624 84.8848 25.1459 84.7505 26.1095 83.6517 26.9791 82.6544 28.079 81.3927 28.9235 79.6805 29.8957 78.1936 31.5399 70.6495 29.3685 79.8064 32.8124 69.2721 34.3823 64.4699 35.0989 61.8233 35.729 57.0051 36.019 54.7879 36.2491 52.5524 36.4582 50.314 36.9784 44.7452 37.1713 39.0948 37.9165 33.5862 38.6335 28.286 39.9748 23.2244 40.8332 17.9736 41.0763 16.4867 41.1676 14.9216 41.5624 13.5128 41.9076 12.2809 42.4504 11.185 43.0207 10.1673 44.1326 8.18315 46.3385 4.69033 48.1248 3.47618 49.6317 2.45191 54.2528 0.251173 56.1456 0.130617 60.7597-0.163363 65.3817 0.130617 69.9998 0.130617" stroke="#000000" stroke-width="7" stroke-miterlimit="8" fill="#C5E0B4" fill-rule="evenodd" transform="matrix(-1 0 0 1 90.2227 23.2227)"/></g></g></g><path d="M0 85.9999 0 85.9999C8.02081 85.6282 16.0642 85.8766 24.0624 84.8848 25.1459 84.7505 26.1095 83.6517 26.9791 82.6544 28.079 81.3927 28.9235 79.6805 29.8957 78.1936 31.5399 70.6495 29.3685 79.8064 32.8124 69.2721 34.3823 64.4699 35.0989 61.8233 35.729 57.0051 36.019 54.7879 36.2491 52.5524 36.4582 50.314 36.9784 44.7452 37.1713 39.0948 37.9165 33.5862 38.6335 28.286 39.9748 23.2244 40.8332 17.9736 41.0763 16.4867 41.1676 14.9216 41.5624 13.5128 41.9076 12.2809 42.4504 11.185 43.0207 10.1673 44.1326 8.18315 46.3385 4.69033 48.1248 3.47618 49.6317 2.45191 54.2528 0.251173 56.1456 0.130617 60.7597-0.163363 65.3817 0.130617 69.9998 0.130617" stroke="#000000" stroke-width="6.875" stroke-miterlimit="8" fill="#C5E0B4" fill-rule="evenodd" transform="matrix(-1 0 0 1 2565.5 2898.5)"/><g clip-path="url(#clip103)"><g clip-path="url(#clip104)" filter="url(#fx22)" transform="translate(1367 2874)"><g clip-path="url(#clip105)"><rect x="0" y="0" width="108" height="108" stroke="#000000" stroke-width="7" stroke-miterlimit="8" stroke-dasharray="20.625 6.875" fill="#C5E0B4" transform="matrix(-1 0 0 1 131.223 23.2227)"/></g></g></g><rect x="0" y="0" width="108" height="108" stroke="#000000" stroke-width="6.875" stroke-miterlimit="8" stroke-dasharray="20.625 6.875" fill="#C5E0B4" transform="matrix(-1 0 0 1 1488.5 2887.5)"/><g clip-path="url(#clip106)"><g clip-path="url(#clip107)" filter="url(#fx23)" transform="translate(1395 2884)"><g clip-path="url(#clip108)"><path d="M0 85.9999 0 85.9999 8.02629 55.009C10.9137 43.7867 11.2245 41.2563 15.5175 27.8919 17.1326 22.8641 18.7696 17.8094 20.8684 13.1712 24.2673 5.65956 26.5406 4.63428 31.5701 0 34.2455 1.03303 37.2312 1.01448 39.5964 3.0991 41.5475 4.8187 42.686 8.02481 43.8771 10.8468 45.5283 14.7593 46.5886 24.5198 47.0876 27.8919 47.266 30.991 47.3855 34.0983 47.6227 37.1892 47.7425 38.7505 48.0724 40.2717 48.1578 41.8378 48.1588 41.8571 48.2855 62.6599 49.763 70.5044 51.4196 79.2993 49.9891 71.9339 51.9034 77.4774 52.6244 79.5652 52.1455 80.3991 53.5086 82.1261 54.4765 83.3524 55.433 85.2252 56.7191 85.2252L60.9998 85.2252" stroke="#000000" stroke-width="7" stroke-miterlimit="8" fill="#C5E0B4" fill-rule="evenodd" transform="matrix(-1 0 0 1 81.2227 24.2227)"/></g></g></g><path d="M0 85.9999 0 85.9999 8.02629 55.009C10.9137 43.7867 11.2245 41.2563 15.5175 27.8919 17.1326 22.8641 18.7696 17.8094 20.8684 13.1712 24.2673 5.65956 26.5406 4.63428 31.5701 0 34.2455 1.03303 37.2312 1.01448 39.5964 3.0991 41.5475 4.8187 42.686 8.02481 43.8771 10.8468 45.5283 14.7593 46.5886 24.5198 47.0876 27.8919 47.266 30.991 47.3855 34.0983 47.6227 37.1892 47.7425 38.7505 48.0724 40.2717 48.1578 41.8378 48.1588 41.8571 48.2855 62.6599 49.763 70.5044 51.4196 79.2993 49.9891 71.9339 51.9034 77.4774 52.6244 79.5652 52.1455 80.3991 53.5086 82.1261 54.4765 83.3524 55.433 85.2252 56.7191 85.2252L60.9998 85.2252" stroke="#000000" stroke-width="6.875" stroke-miterlimit="8" fill="#C5E0B4" fill-rule="evenodd" transform="matrix(-1 0 0 1 1466.5 2898.5)"/><g clip-path="url(#clip109)" filter="url(#fx24)" transform="translate(1586 2874)"><g clip-path="url(#clip110)"><rect x="0" y="0" width="108" height="108" stroke="#000000" stroke-width="7" stroke-miterlimit="8" stroke-dasharray="20.625 6.875" fill="#C5E0B4" transform="matrix(-1 0 0 1 131.223 23.2227)"/></g></g><rect x="0" y="0" width="108" height="108" stroke="#000000" stroke-width="6.875" stroke-miterlimit="8" stroke-dasharray="20.625 6.875" fill="#C5E0B4" transform="matrix(-1 0 0 1 1707.5 2887.5)"/><g clip-path="url(#clip111)" filter="url(#fx25)" transform="translate(1612 2894)"><g clip-path="url(#clip112)"><path d="M21.2228 94.2229 21.2228 94.2229C24.016 93.6055 39.6423 89.6026 45.439 89.6026 49.4795 89.6026 53.511 90.2185 57.5471 90.5267 64.6294 76.3388 65.8075 74.9087 71.9615 58.1848 74.0578 52.488 74.8094 45.3041 77.7272 40.6278 78.3038 39.7037 78.983 38.919 79.457 37.8556 79.9566 36.7347 80.1545 35.3276 80.6101 34.1594 81.1195 32.8534 81.7633 31.6954 82.3398 30.4632 83.7969 23.4578 82.7636 26.4774 85.2227 21.2227" stroke="#000000" stroke-width="7" stroke-miterlimit="8" fill="#C5E0B4" fill-rule="evenodd"/></g></g><path d="M1623.5 2978.5 1623.5 2978.5C1626.29 2977.88 1641.92 2973.88 1647.72 2973.88 1651.76 2973.88 1655.79 2974.5 1659.82 2974.8 1666.91 2960.62 1668.08 2959.19 1674.24 2942.46 1676.33 2936.77 1677.09 2929.58 1680 2924.9 1680.58 2923.98 1681.26 2923.2 1681.73 2922.13 1682.23 2921.01 1682.43 2919.6 1682.89 2918.44 1683.4 2917.13 1684.04 2915.97 1684.62 2914.74 1686.07 2907.73 1685.04 2910.75 1687.5 2905.5" stroke="#000000" stroke-width="6.875" stroke-miterlimit="8" fill="#C5E0B4" fill-rule="evenodd"/><g clip-path="url(#clip113)"><g clip-path="url(#clip114)" filter="url(#fx26)" transform="translate(1805 2874)"><g clip-path="url(#clip115)"><rect x="0" y="0" width="109" height="108" stroke="#000000" stroke-width="7" stroke-miterlimit="8" stroke-dasharray="20.625 6.875" fill="#C5E0B4" transform="matrix(-1 0 0 1 132.223 23.2227)"/></g></g></g><rect x="0" y="0" width="109" height="108" stroke="#000000" stroke-width="6.875" stroke-miterlimit="8" stroke-dasharray="20.625 6.875" fill="#C5E0B4" transform="matrix(-1 0 0 1 1927.5 2887.5)"/><g clip-path="url(#clip116)"><g clip-path="url(#clip117)" filter="url(#fx27)" transform="translate(1828 2885)"><g clip-path="url(#clip118)"><path d="M0 85.9999 0 85.9999C7.90626 85.6282 15.8348 85.8766 23.7188 84.8848 24.7868 84.7505 25.7366 83.6517 26.5938 82.6544 27.678 81.3927 28.5105 79.6805 29.4688 78.1936 31.0895 70.6495 28.9491 79.8064 32.3438 69.2721 33.8913 64.4699 34.5977 61.8233 35.2188 57.0051 35.5046 54.7879 35.7315 52.5524 35.9375 50.314 36.4503 44.7452 36.6405 39.0948 37.3751 33.5862 38.0818 28.286 39.404 23.2244 40.2501 17.9736 40.4896 16.4867 40.5797 14.9216 40.9688 13.5128 41.3091 12.2809 41.8441 11.185 42.4063 10.1673 43.5024 8.18315 45.6768 4.69033 47.4376 3.47618 48.9229 2.45191 53.478 0.251173 55.3438 0.130617 59.892-0.163363 64.448 0.130617 69.0001 0.130617" stroke="#000000" stroke-width="7" stroke-miterlimit="8" fill="#C5E0B4" fill-rule="evenodd" transform="matrix(-1 0 0 1 89.2227 23.2227)"/></g></g></g><path d="M0 85.9999 0 85.9999C7.90626 85.6282 15.8348 85.8766 23.7188 84.8848 24.7868 84.7505 25.7366 83.6517 26.5938 82.6544 27.678 81.3927 28.5105 79.6805 29.4688 78.1936 31.0895 70.6495 28.9491 79.8064 32.3438 69.2721 33.8913 64.4699 34.5977 61.8233 35.2188 57.0051 35.5046 54.7879 35.7315 52.5524 35.9375 50.314 36.4503 44.7452 36.6405 39.0948 37.3751 33.5862 38.0818 28.286 39.404 23.2244 40.2501 17.9736 40.4896 16.4867 40.5797 14.9216 40.9688 13.5128 41.3091 12.2809 41.8441 11.185 42.4063 10.1673 43.5024 8.18315 45.6768 4.69033 47.4376 3.47618 48.9229 2.45191 53.478 0.251173 55.3438 0.130617 59.892-0.163363 64.448 0.130617 69.0001 0.130617" stroke="#000000" stroke-width="6.875" stroke-miterlimit="8" fill="#C5E0B4" fill-rule="evenodd" transform="matrix(-1 0 0 1 1907.5 2898.5)"/><g clip-path="url(#clip119)" filter="url(#fx28)" transform="translate(2025 2874)"><g clip-path="url(#clip120)"><rect x="0" y="0" width="108" height="108" stroke="#000000" stroke-width="7" stroke-miterlimit="8" stroke-dasharray="20.625 6.875" fill="#C5E0B4" transform="matrix(-1 0 0 1 131.223 23.2227)"/></g></g><rect x="0" y="0" width="108" height="108" stroke="#000000" stroke-width="6.875" stroke-miterlimit="8" stroke-dasharray="20.625 6.875" fill="#C5E0B4" transform="matrix(-1 0 0 1 2146.5 2887.5)"/><g clip-path="url(#clip121)" filter="url(#fx29)" transform="translate(2058 2891)"><g clip-path="url(#clip122)"><path d="M23.2227 20.2229 23.2227 20.2229C23.3755 29.8928 23.2241 39.5926 23.681 49.2327 23.9823 55.5896 25.1273 58.2875 25.9727 63.7376 26.2865 65.7604 26.333 68.228 26.8893 70.1842 28.1017 74.4475 27.4917 70.8609 29.181 75.0192 29.5782 75.9967 29.8284 77.1385 30.0977 78.2425 30.288 79.0233 30.2467 80.0074 30.556 80.66 31.8009 83.2866 33.306 85.495 34.681 87.9125 35.1393 88.7183 35.441 89.9695 36.056 90.3299 36.9727 90.8671 37.9418 91.1818 38.806 91.9416 40.8324 93.723 41.2875 94.3705 43.8477 95.1649 45.3596 95.6341 46.9032 95.702 48.431 95.9707 49.0422 96.2394 49.6494 96.5364 50.2643 96.7766 59.0804 100.221 58.3113 96.7391 74.556 94.3591 75.0143 94.0904 75.529 94.0244 75.931 93.5533 76.4703 92.921 76.7998 91.8477 77.306 91.1358 77.5727 90.7605 77.9172 90.5987 78.2227 90.3299" stroke="#000000" stroke-width="7" stroke-miterlimit="8" fill="#C5E0B4" fill-rule="evenodd"/></g></g><path d="M2071.5 2901.5 2071.5 2901.5C2071.65 2911.17 2071.5 2920.87 2071.96 2930.51 2072.26 2936.87 2073.4 2939.56 2074.25 2945.01 2074.56 2947.04 2074.61 2949.51 2075.17 2951.46 2076.38 2955.72 2075.77 2952.14 2077.46 2956.3 2077.86 2957.27 2078.11 2958.42 2078.38 2959.52 2078.57 2960.3 2078.52 2961.28 2078.83 2961.94 2080.08 2964.56 2081.58 2966.77 2082.96 2969.19 2083.42 2970 2083.72 2971.25 2084.33 2971.61 2085.25 2972.14 2086.22 2972.46 2087.08 2973.22 2089.11 2975 2089.56 2975.65 2092.12 2976.44 2093.64 2976.91 2095.18 2976.98 2096.71 2977.25 2097.32 2977.52 2097.93 2977.81 2098.54 2978.05 2107.36 2981.5 2106.59 2978.02 2122.83 2975.64 2123.29 2975.37 2123.81 2975.3 2124.21 2974.83 2124.75 2974.2 2125.08 2973.12 2125.58 2972.41 2125.85 2972.04 2126.19 2971.88 2126.5 2971.61" stroke="#000000" stroke-width="6.875" stroke-miterlimit="8" fill="#C5E0B4" fill-rule="evenodd"/><path d="M1163.24 2661.99 1417.3 2866.91 1410.83 2874.94 1156.76 2670.01ZM1419.76 2855.64 1434.13 2887.11 1400.34 2879.73Z"/><path d="M1162.11 2661.29 1631.88 2871.86 1627.66 2881.27 1157.89 2670.71ZM1631.39 2860.34 1653.3 2887.11 1618.74 2888.57Z"/><path d="M2.0723-4.72149 482.232 206.025 478.087 215.468-2.0723 4.72149ZM481.654 194.509 503.766 221.108 469.221 222.838Z" transform="matrix(-1 0 0 1 2376.77 2666)"/><path d="M3.16339-4.07184 267.408 201.219 261.082 209.363-3.16339 4.07184ZM269.663 189.912 284.604 221.108 250.683 214.343Z" transform="matrix(-1 0 0 1 2376.6 2666)"/><path d="M1435.4 2990.04 2229.54 3213.57 2226.74 3223.49 1432.6 2999.96ZM2227.37 3202.24 2252.96 3225.52 2218.99 3232.02Z"/><path d="M1654.06 2989.95 2702.6 3210.58 2700.48 3220.67 1651.94 3000.05ZM2699.68 3199.42 2726.77 3220.93 2693.31 3229.7Z"/><path d="M1.11448-5.03437 1017.23 219.909 1015 229.977-1.11448 5.03437ZM1014.43 208.725 1041.29 230.515 1007.74 238.932Z" transform="matrix(-1 0 0 1 1872.29 2995)"/><path d="M1.45028-4.94809 763.187 218.316 760.287 228.212-1.45028 4.94809ZM761.14 206.969 786.478 230.515 752.438 236.658Z" transform="matrix(-1 0 0 1 2091.48 2995)"/><path d="M2.01662-4.74554 509.955 211.103 505.921 220.594-2.01662 4.74554ZM509.242 199.596 531.666 225.932 497.142 228.069Z" transform="matrix(-1 0 0 1 2310.67 2995)"/><path d="M3.2993-3.96252 260.34 210.056 253.742 217.981-3.2993 3.96252ZM262.976 198.832 276.854 230.515 243.181 222.607Z" transform="matrix(-1 0 0 1 2529.85 2995)"/><path d="M5.13189-0.500657 24.6701 199.772 14.4063 200.773-5.13189 0.500657ZM34.4332 193.639 22.0415 225.932 3.6419 196.643Z" transform="matrix(-1 0 0 1 2749.04 2995)"/><g clip-path="url(#clip123)" filter="url(#fx30)" transform="translate(730 3467)"><g clip-path="url(#clip124)"><rect x="0" y="0" width="108" height="108" stroke="#000000" stroke-width="7" stroke-miterlimit="8" stroke-dasharray="20.625 6.875" fill="#C5E0B4" transform="matrix(-1 0 0 1 131.223 23.2227)"/></g></g><rect x="0" y="0" width="108" height="108" stroke="#000000" stroke-width="6.875" stroke-miterlimit="8" stroke-dasharray="20.625 6.875" fill="#C5E0B4" transform="matrix(-1 0 0 1 851.5 3480.5)"/><g clip-path="url(#clip125)" filter="url(#fx31)" transform="translate(757 3484)"><g clip-path="url(#clip126)"><path d="M23.2225 20.2229 23.2225 20.2229C25.5467 103.4 19.4187 46.8202 27.9756 79.0543 28.7367 81.9217 30.8916 98.8226 34.7657 99.5174 44.4532 101.255 37.9199 100.279 54.4571 101.223 58.0786 99.5174 62.0818 98.7598 65.3213 96.1069 69.633 92.5759 71.0654 85.5991 72.1114 79.9069 72.9399 75.3988 73.3764 70.7888 74.1485 66.2649 74.735 62.8275 75.5065 59.4438 76.1855 56.0333 76.4119 52.9071 76.6028 49.7762 76.8645 46.6544 77.0556 44.3755 77.3981 42.1173 77.5435 39.8334 77.851 35.009 77.9961 30.1701 78.2225 25.3387" stroke="#000000" stroke-width="7" stroke-miterlimit="8" fill="#C5E0B4" fill-rule="evenodd"/></g></g><path d="M770.5 3494.5 770.5 3494.5C772.824 3577.68 766.696 3521.1 775.253 3553.33 776.014 3556.2 778.169 3573.1 782.043 3573.79 791.73 3575.53 785.197 3574.56 801.734 3575.5 805.356 3573.79 809.359 3573.04 812.599 3570.38 816.91 3566.85 818.343 3559.88 819.389 3554.18 820.217 3549.68 820.654 3545.07 821.426 3540.54 822.012 3537.1 822.784 3533.72 823.463 3530.31 823.689 3527.18 823.88 3524.05 824.142 3520.93 824.333 3518.65 824.675 3516.39 824.821 3514.11 825.128 3509.29 825.273 3504.45 825.5 3499.62" stroke="#000000" stroke-width="6.875" stroke-miterlimit="8" fill="#C5E0B4" fill-rule="evenodd"/><g clip-path="url(#clip127)" filter="url(#fx32)" transform="translate(1205 3467)"><g clip-path="url(#clip128)"><rect x="0" y="0" width="108" height="108" stroke="#000000" stroke-width="7" stroke-miterlimit="8" stroke-dasharray="20.625 6.875" fill="#C5E0B4" transform="matrix(-1 0 0 1 131.223 23.2227)"/></g></g><rect x="0" y="0" width="108" height="108" stroke="#000000" stroke-width="6.875" stroke-miterlimit="8" stroke-dasharray="20.625 6.875" fill="#C5E0B4" transform="matrix(-1 0 0 1 1326.5 3480.5)"/><g clip-path="url(#clip129)" filter="url(#fx33)" transform="translate(1230 3485)"><g clip-path="url(#clip130)"><path d="M20.2228 100.223 20.2228 100.223C27.3362 99.5145 34.4792 98.9561 41.5629 98.0985 43.2668 97.8922 45.1944 97.8416 46.5423 97.0365 48.9135 95.6204 50.703 93.6842 52.233 91.7261 54.0528 89.3973 55.2931 86.8326 56.501 84.2916 57.906 81.3356 58.8722 78.2732 60.0577 75.264 60.5318 70.8387 61.3591 66.4267 61.4804 61.9882 61.5966 57.7372 61.2174 53.4822 60.769 49.2433 60.5251 46.9361 59.3029 41.6144 58.635 38.6227 58.8722 35.7904 58.7826 32.9324 59.3463 30.1261 59.8053 27.842 62.6737 26.8579 65.037 25.8778 65.6924 25.606 66.5003 25.597 67.1711 25.3468 67.9356 25.0614 68.494 24.4865 69.3051 24.2847 70.6734 23.9442 72.1653 23.9872 73.5731 23.7537 74.3052 23.6322 74.9958 23.3997 75.7071 23.2227 88.649 24.3594 85.5485 21.7636 89.2225 25.8778" stroke="#000000" stroke-width="7" stroke-miterlimit="8" fill="#C5E0B4" fill-rule="evenodd"/></g></g><path d="M1240.5 3575.5 1240.5 3575.5C1247.61 3574.79 1254.76 3574.23 1261.84 3573.38 1263.54 3573.17 1265.47 3573.12 1266.82 3572.31 1269.19 3570.9 1270.98 3568.96 1272.51 3567 1274.33 3564.67 1275.57 3562.11 1276.78 3559.57 1278.18 3556.61 1279.15 3553.55 1280.33 3550.54 1280.81 3546.12 1281.64 3541.7 1281.76 3537.27 1281.87 3533.01 1281.49 3528.76 1281.05 3524.52 1280.8 3522.21 1279.58 3516.89 1278.91 3513.9 1279.15 3511.07 1279.06 3508.21 1279.62 3505.4 1280.08 3503.12 1282.95 3502.14 1285.31 3501.16 1285.97 3500.88 1286.78 3500.87 1287.45 3500.62 1288.21 3500.34 1288.77 3499.76 1289.58 3499.56 1290.95 3499.22 1292.44 3499.26 1293.85 3499.03 1294.58 3498.91 1295.27 3498.68 1295.98 3498.5 1308.93 3499.64 1305.83 3497.04 1309.5 3501.16" stroke="#000000" stroke-width="6.875" stroke-miterlimit="8" fill="#C5E0B4" fill-rule="evenodd"/><g clip-path="url(#clip131)" filter="url(#fx34)" transform="translate(1678 3467)"><g clip-path="url(#clip132)"><rect x="0" y="0" width="108" height="108" stroke="#000000" stroke-width="7" stroke-miterlimit="8" stroke-dasharray="20.625 6.875" fill="#C5E0B4" transform="matrix(-1 0 0 1 131.223 23.2227)"/></g></g><rect x="0" y="0" width="108" height="108" stroke="#000000" stroke-width="6.875" stroke-miterlimit="8" stroke-dasharray="20.625 6.875" fill="#C5E0B4" transform="matrix(-1 0 0 1 1799.5 3480.5)"/><g clip-path="url(#clip133)" filter="url(#fx35)" transform="translate(1711 3484)"><g clip-path="url(#clip134)"><path d="M23.2228 20.2229 23.2228 20.2229C23.3784 29.8928 23.2242 39.5926 23.6894 49.2327 23.9963 55.5896 25.162 58.2875 26.0228 63.7376 26.3423 65.7604 26.3897 68.228 26.9561 70.1842 28.1906 74.4475 27.5694 70.8609 29.2894 75.0192 29.6938 75.9967 29.9487 77.1385 30.2228 78.2425 30.4166 79.0233 30.3745 80.0074 30.6894 80.66 31.957 83.2866 33.4895 85.495 34.8895 87.9125 35.3561 88.7183 35.6633 89.9695 36.2895 90.3299 37.2228 90.8671 38.2096 91.1818 39.0895 91.9416 41.1527 93.723 41.6161 94.3705 44.2228 95.1649 45.7622 95.6341 47.3338 95.702 48.8895 95.9707 49.5117 96.2394 50.13 96.5364 50.7561 96.7766 59.7325 100.221 58.9494 96.7391 75.4895 94.3591 75.9561 94.0904 76.4801 94.0244 76.8895 93.5533 77.4386 92.921 77.7741 91.8477 78.2895 91.1358 78.561 90.7605 78.9118 90.5987 79.2228 90.3299" stroke="#000000" stroke-width="7" stroke-miterlimit="8" fill="#C5E0B4" fill-rule="evenodd"/></g></g><path d="M1724.5 3494.5 1724.5 3494.5C1724.66 3504.17 1724.5 3513.87 1724.97 3523.51 1725.27 3529.87 1726.44 3532.56 1727.3 3538.01 1727.62 3540.04 1727.67 3542.51 1728.23 3544.46 1729.47 3548.72 1728.85 3545.14 1730.57 3549.3 1730.97 3550.27 1731.23 3551.42 1731.5 3552.52 1731.69 3553.3 1731.65 3554.28 1731.97 3554.94 1733.23 3557.56 1734.77 3559.77 1736.17 3562.19 1736.63 3563 1736.94 3564.25 1737.57 3564.61 1738.5 3565.14 1739.49 3565.46 1740.37 3566.22 1742.43 3568 1742.89 3568.65 1745.5 3569.44 1747.04 3569.91 1748.61 3569.98 1750.17 3570.25 1750.79 3570.52 1751.41 3570.81 1752.03 3571.05 1761.01 3574.5 1760.23 3571.02 1776.77 3568.64 1777.23 3568.37 1777.76 3568.3 1778.17 3567.83 1778.72 3567.2 1779.05 3566.12 1779.57 3565.41 1779.84 3565.04 1780.19 3564.88 1780.5 3564.61" stroke="#000000" stroke-width="6.875" stroke-miterlimit="8" fill="#C5E0B4" fill-rule="evenodd"/><g clip-path="url(#clip135)"><g clip-path="url(#clip136)" filter="url(#fx36)" transform="translate(2161 3466)"><g clip-path="url(#clip137)"><rect x="0" y="0" width="108" height="108" stroke="#000000" stroke-width="7" stroke-miterlimit="8" stroke-dasharray="20.625 6.875" fill="#C5E0B4" transform="matrix(-1 0 0 1 131.223 23.2227)"/></g></g></g><rect x="0" y="0" width="108" height="108" stroke="#000000" stroke-width="6.875" stroke-miterlimit="8" stroke-dasharray="20.625 6.875" fill="#C5E0B4" transform="matrix(-1 0 0 1 2282.5 3479.5)"/><g clip-path="url(#clip138)"><g clip-path="url(#clip139)" filter="url(#fx37)" transform="translate(2185 3476)"><g clip-path="url(#clip140)"><path d="M0 85.9999 0 85.9999C12.5923 80.5367 24.2541 85.0477 29.3181 68.1707 30.0114 65.8598 30.2272 63.2764 30.6817 60.8292 31.8298 45.5237 32.0138 36.4917 34.0908 23.0732 34.691 19.1956 35.2264 15.2687 36.1362 11.5366 36.7222 9.13312 39.3023 3.33335 40.909 2.09756 42.5852 0.808262 44.5453 0.699186 46.3635 0 49.2099 2.9189 53.6285 6.07212 55.2271 11.5366 56.7018 16.5773 58.6362 27.2683 58.6362 27.2683 59.3501 34.9559 57.711 34.6097 59.9998 34.6097" stroke="#000000" stroke-width="7" stroke-miterlimit="8" fill="#C5E0B4" fill-rule="evenodd" transform="matrix(-1 0 0 1 83.2227 24.2227)"/></g></g></g><path d="M0 85.9999 0 85.9999C12.5923 80.5367 24.2541 85.0477 29.3181 68.1707 30.0114 65.8598 30.2272 63.2764 30.6817 60.8292 31.8298 45.5237 32.0138 36.4917 34.0908 23.0732 34.691 19.1956 35.2264 15.2687 36.1362 11.5366 36.7222 9.13312 39.3023 3.33335 40.909 2.09756 42.5852 0.808262 44.5453 0.699186 46.3635 0 49.2099 2.9189 53.6285 6.07212 55.2271 11.5366 56.7018 16.5773 58.6362 27.2683 58.6362 27.2683 59.3501 34.9559 57.711 34.6097 59.9998 34.6097" stroke="#000000" stroke-width="6.875" stroke-miterlimit="8" fill="#C5E0B4" fill-rule="evenodd" transform="matrix(-1 0 0 1 2258.5 3490.5)"/><g clip-path="url(#clip141)"><g clip-path="url(#clip142)" filter="url(#fx38)" transform="translate(2638 3459)"><g clip-path="url(#clip143)"><rect x="0" y="0" width="108" height="108" stroke="#000000" stroke-width="7" stroke-miterlimit="8" stroke-dasharray="20.625 6.875" fill="#C5E0B4" transform="matrix(-1 0 0 1 131.223 23.2229)"/></g></g></g><rect x="0" y="0" width="108" height="108" stroke="#000000" stroke-width="6.875" stroke-miterlimit="8" stroke-dasharray="20.625 6.875" fill="#C5E0B4" transform="matrix(-1 0 0 1 2759.5 3472.5)"/><g clip-path="url(#clip144)"><g clip-path="url(#clip145)" filter="url(#fx39)" transform="translate(2661 3470)"><g clip-path="url(#clip146)"><path d="M0 85.9999 0 85.9999C7.90622 85.6282 15.8347 85.8766 23.7187 84.8848 24.7866 84.7505 25.7365 83.6517 26.5936 82.6544 27.6779 81.3927 28.5103 79.6805 29.4686 78.1936 31.0894 70.6495 28.9489 79.8064 32.3436 69.2721 33.8911 64.4699 34.5975 61.8233 35.2186 57.0051 35.5044 54.7879 35.7313 52.5524 35.9374 50.314 36.4501 44.7452 36.6403 39.0948 37.3749 33.5862 38.0816 28.286 39.4038 23.2244 40.2498 17.9736 40.4894 16.4867 40.5795 14.9216 40.9686 13.5128 41.3089 12.2809 41.8439 11.185 42.4061 10.1673 43.5021 8.18315 45.6765 4.69033 47.4373 3.47618 48.9227 2.45191 53.4777 0.251173 55.3435 0.130617 59.8917-0.163363 64.4477 0.130617 68.9997 0.130617" stroke="#000000" stroke-width="7" stroke-miterlimit="8" fill="#C5E0B4" fill-rule="evenodd" transform="matrix(-1 0 0 1 89.2227 23.2229)"/></g></g></g><path d="M0 85.9999 0 85.9999C7.90622 85.6282 15.8347 85.8766 23.7187 84.8848 24.7866 84.7505 25.7365 83.6517 26.5936 82.6544 27.6779 81.3927 28.5103 79.6805 29.4686 78.1936 31.0894 70.6495 28.9489 79.8064 32.3436 69.2721 33.8911 64.4699 34.5975 61.8233 35.2186 57.0051 35.5044 54.7879 35.7313 52.5524 35.9374 50.314 36.4501 44.7452 36.6403 39.0948 37.3749 33.5862 38.0816 28.286 39.4038 23.2244 40.2498 17.9736 40.4894 16.4867 40.5795 14.9216 40.9686 13.5128 41.3089 12.2809 41.8439 11.185 42.4061 10.1673 43.5021 8.18315 45.6765 4.69033 47.4373 3.47618 48.9227 2.45191 53.4777 0.251173 55.3435 0.130617 59.8917-0.163363 64.4477 0.130617 68.9997 0.130617" stroke="#000000" stroke-width="6.875" stroke-miterlimit="8" fill="#C5E0B4" fill-rule="evenodd" transform="matrix(-1 0 0 1 2740.5 3483.5)"/><path d="M2226.16 3356 2226.16 3453.5 2215.84 3453.5 2215.84 3356ZM2236.47 3448.35 2221 3479.28 2205.53 3448.35Z"/><path d="M2700.16 3351 2700.16 3446.59 2689.84 3446.59 2689.84 3351ZM2710.47 3441.43 2695 3472.37 2679.53 3441.43Z"/><path d="M2.01708-4.74535 456.34 188.371 452.306 197.862-2.01708 4.74535ZM455.629 176.863 478.05 203.202 443.527 205.335Z" transform="matrix(-1 0 0 1 2228.05 3587)"/><path d="M1.105-5.03646 931.718 199.14 929.508 209.213-1.105 5.03646ZM928.89 187.962 955.794 209.702 922.26 218.181Z" transform="matrix(-1 0 0 1 2705.79 3580)"/><path d="M2857 2937 3026.49 3225.94" stroke="#000000" stroke-width="5.72917" stroke-miterlimit="8" stroke-dasharray="22.9167 17.1875" fill="none" fill-rule="evenodd"/><path d="M0 0 169.977 303.4" stroke="#000000" stroke-width="5.72917" stroke-miterlimit="8" stroke-dasharray="22.9167 17.1875" fill="none" fill-rule="evenodd" transform="matrix(-1 0 0 1 3026.98 3226)"/></g></svg>