<?xml version="1.0" encoding="utf-8" standalone="no"?>
<!DOCTYPE svg PUBLIC "-//W3C//DTD SVG 1.1//EN"
  "http://www.w3.org/Graphics/SVG/1.1/DTD/svg11.dtd">
<svg xmlns:xlink="http://www.w3.org/1999/xlink" width="576pt" height="432pt" viewBox="0 0 576 432" xmlns="http://www.w3.org/2000/svg" version="1.1">
 <metadata>
  <rdf:RDF xmlns:dc="http://purl.org/dc/elements/1.1/" xmlns:cc="http://creativecommons.org/ns#" xmlns:rdf="http://www.w3.org/1999/02/22-rdf-syntax-ns#">
   <cc:Work>
    <dc:type rdf:resource="http://purl.org/dc/dcmitype/StillImage"/>
    <dc:date>2025-01-09T09:42:18.363467</dc:date>
    <dc:format>image/svg+xml</dc:format>
    <dc:creator>
     <cc:Agent>
      <dc:title>Matplotlib v3.9.2, https://matplotlib.org/</dc:title>
     </cc:Agent>
    </dc:creator>
   </cc:Work>
  </rdf:RDF>
 </metadata>
 <defs>
  <style type="text/css">*{stroke-linejoin: round; stroke-linecap: butt}</style>
 </defs>
 <g id="figure_1">
  <g id="patch_1">
   <path d="M 0 432 
L 576 432 
L 576 0 
L 0 0 
L 0 432 
z
" style="fill: none"/>
  </g>
  <g id="axes_1">
   <g id="line2d_1">
    <path d="M 92.290909 315.391172 
L 102.040295 327.182483 
L 104.883866 330.213463 
L 107.321212 332.517826 
L 109.352334 334.185317 
L 111.383456 335.589389 
L 113.414578 336.702096 
L 115.039476 337.366173 
L 116.664373 337.817967 
L 118.289271 338.049058 
L 119.914169 338.053052 
L 121.539066 337.825678 
L 123.163964 337.364869 
L 124.788862 336.670818 
L 126.413759 335.74602 
L 128.038657 334.595288 
L 130.069779 332.850225 
L 132.100901 330.782372 
L 134.132023 328.416086 
L 136.569369 325.224552 
L 139.41294 321.092895 
L 143.06896 315.308249 
L 154.443243 296.866784 
L 157.286814 292.904573 
L 159.724161 289.935892 
L 161.755283 287.82598 
L 163.38018 286.407634 
L 165.005078 285.250805 
L 166.629975 284.373556 
L 168.254873 283.791707 
L 169.473546 283.557327 
L 170.692219 283.501381 
L 171.910893 283.62769 
L 173.129566 283.939175 
L 174.348239 284.437822 
L 175.566912 285.124658 
L 177.19181 286.333115 
L 178.816708 287.873436 
L 180.441605 289.739747 
L 182.066503 291.922943 
L 184.097625 295.078448 
L 186.128747 298.678439 
L 188.566093 303.530062 
L 191.00344 308.884714 
L 194.253235 316.640653 
L 198.721704 328.003447 
L 204.81507 343.489866 
L 207.65864 350.168305 
L 210.095987 355.373211 
L 212.127109 359.235918 
L 214.158231 362.582039 
L 215.783129 364.835607 
L 217.408026 366.672581 
L 218.626699 367.755795 
L 219.845373 368.571082 
L 221.064046 369.105412 
L 222.282719 369.346666 
L 223.501392 369.283699 
L 224.720066 368.906408 
L 225.938739 368.205786 
L 227.157412 367.173977 
L 228.376085 365.804328 
L 229.594758 364.091431 
L 230.813432 362.031165 
L 232.438329 358.73915 
L 234.063227 354.821885 
L 235.688124 350.280847 
L 237.313022 345.121945 
L 239.344144 337.820666 
L 241.375266 329.600538 
L 243.406388 320.50235 
L 245.843735 308.498413 
L 248.281081 295.412212 
L 251.124652 278.948121 
L 254.374447 258.841823 
L 258.842916 229.654342 
L 269.40475 159.932744 
L 272.654545 140.163922 
L 275.498116 124.169067 
L 277.935463 111.656324 
L 279.966585 102.201122 
L 281.997707 93.723772 
L 284.028829 86.303445 
L 285.653726 81.17535 
L 287.278624 76.799378 
L 288.497297 74.027047 
L 289.715971 71.702178 
L 290.934644 69.832691 
L 292.153317 68.424962 
L 292.965766 67.745447 
L 293.778215 67.274358 
L 294.590663 67.01241 
L 295.403112 66.96 
L 296.215561 67.117209 
L 297.02801 67.483797 
L 297.840459 68.059209 
L 298.652907 68.84257 
L 299.871581 70.40483 
L 301.090254 72.426896 
L 302.308927 74.901875 
L 303.5276 77.821336 
L 305.152498 82.387994 
L 306.777396 87.699464 
L 308.402293 93.723772 
L 310.433415 102.201122 
L 312.464537 111.656324 
L 314.901884 124.169067 
L 317.745455 140.163922 
L 320.99525 159.932744 
L 325.057494 186.205382 
L 337.65045 269.045314 
L 340.900246 288.502355 
L 343.743817 304.250696 
L 346.181163 316.628361 
L 348.618509 327.849653 
L 350.649631 336.248997 
L 352.680753 343.736795 
L 354.711876 350.280847 
L 356.336773 354.821885 
L 357.961671 358.73915 
L 359.586568 362.031165 
L 360.805242 364.091431 
L 362.023915 365.804328 
L 363.242588 367.173977 
L 364.461261 368.205786 
L 365.679934 368.906408 
L 366.898608 369.283699 
L 368.117281 369.346666 
L 369.335954 369.105412 
L 370.554627 368.571082 
L 371.773301 367.755795 
L 372.991974 366.672581 
L 374.210647 365.335311 
L 375.835545 363.182492 
L 377.460442 360.640714 
L 379.491564 356.975253 
L 381.522686 352.840628 
L 383.960033 347.374077 
L 387.209828 339.46356 
L 393.303194 323.817372 
L 397.365438 313.663039 
L 400.209009 307.049524 
L 402.646355 301.852667 
L 405.083702 297.187417 
L 407.114824 293.760991 
L 409.145946 290.79243 
L 410.770844 288.766336 
L 412.395741 287.062084 
L 414.020639 285.687163 
L 415.645536 284.645835 
L 416.86421 284.084524 
L 418.082883 283.710826 
L 419.301556 283.52307 
L 420.520229 283.518645 
L 421.738903 283.694027 
L 422.957576 284.044811 
L 424.582473 284.776189 
L 426.207371 285.795351 
L 427.832269 287.085328 
L 429.457166 288.627017 
L 431.488288 290.875916 
L 433.51941 293.440473 
L 435.956757 296.866784 
L 439.206552 301.88223 
L 444.081245 309.921789 
L 449.768387 319.213152 
L 453.018182 324.084856 
L 455.455528 327.39246 
L 457.892875 330.332117 
L 459.923997 332.461775 
L 461.955119 334.273086 
L 463.986241 335.74602 
L 465.611138 336.670818 
L 467.236036 337.364869 
L 468.860934 337.825678 
L 470.485831 338.053052 
L 472.110729 338.049058 
L 473.735627 337.817967 
L 475.360524 337.366173 
L 476.985422 336.702096 
L 479.016544 335.589389 
L 481.047666 334.185317 
L 483.078788 332.517826 
L 485.516134 330.213463 
L 488.359705 327.182483 
L 492.015725 322.901483 
L 498.109091 315.391172 
L 498.109091 315.391172 
" clip-path="url(#p3e679eabce)" style="fill: none; stroke: #000000; stroke-width: 3; stroke-linecap: square"/>
   </g>
  </g>
 </g>
 <defs>
  <clipPath id="p3e679eabce">
   <rect x="72" y="51.84" width="446.4" height="332.64"/>
  </clipPath>
 </defs>
</svg>
